<svg version="1.1" id="Layer_1" xmlns="http://www.w3.org/2000/svg" xmlns:xlink="http://www.w3.org/1999/xlink" x="0px" y="0px"
	 width="100%" viewBox="0 0 454 354" enable-background="new 0 0 454 354" xml:space="preserve">
<path fill="#1A9AAD" opacity="1.000000" stroke="none" 
	d="
M360.000000,355.000000 
	C271.645782,355.000000 183.291550,355.000000 94.468658,354.531372 
	C93.985825,346.077637 93.971649,338.092590 93.975937,329.632416 
	C94.007477,317.675415 94.009483,306.193481 94.036400,294.711609 
	C94.070427,280.192780 95.316948,265.855652 99.987679,251.964554 
	C108.009140,228.108200 121.542252,208.188080 142.227585,193.615265 
	C149.786362,188.290100 158.041489,183.953339 166.361237,179.087463 
	C180.516418,174.034836 194.523026,170.553146 209.363235,170.933029 
	C222.018188,171.256973 234.688614,170.921539 247.351089,171.020386 
	C262.264709,171.136826 276.400208,174.745667 290.174408,181.151703 
	C292.908508,182.737427 295.411072,184.049789 297.878479,185.425186 
	C310.182831,192.284058 321.312683,200.656723 330.532440,211.368423 
	C351.624512,235.873688 360.243042,264.714752 360.006592,296.626709 
	C359.919006,308.446869 360.032745,320.268463 360.031799,332.552643 
	C360.005920,340.343903 360.002960,347.671967 360.000000,355.000000 
z"/>
<path fill="#FFFFFF" opacity="1.000000" stroke="none" 
	d="
M289.926666,180.907410 
	C276.400208,174.745667 262.264709,171.136826 247.351089,171.020386 
	C234.688614,170.921539 222.018188,171.256973 209.363235,170.933029 
	C194.523026,170.553146 180.516418,174.034836 165.975128,179.016205 
	C155.111557,176.684677 145.077820,172.754349 134.907593,172.362030 
	C117.448868,171.688568 99.822006,170.503326 82.396873,173.958282 
	C56.771915,179.039047 36.133503,192.027084 20.649132,212.959579 
	C11.241362,225.677429 4.827435,239.792740 2.929856,255.722290 
	C2.479309,259.504486 1.653302,263.241943 1.000000,267.000000 
	C1.000000,178.412384 1.000000,89.824768 1.000000,1.000000 
	C75.687393,1.000000 150.375046,1.000000 225.329163,1.381490 
	C217.853317,2.936353 209.722977,2.986481 202.443817,5.500794 
	C183.195618,12.149351 168.302673,24.465715 158.614990,42.837212 
	C157.146072,41.833530 156.064178,40.820713 154.856781,39.990437 
	C140.338776,30.007116 124.613739,25.428492 106.790573,27.885237 
	C88.214386,30.445776 73.593094,39.172253 62.504307,54.015125 
	C50.612469,69.932930 47.325615,87.998749 51.136078,107.120491 
	C54.926994,126.144135 65.762108,140.570694 82.673271,150.251892 
	C96.387512,158.102936 111.020386,160.801620 126.649170,158.015900 
	C145.025787,154.740402 159.831985,145.987991 170.392578,130.170959 
	C178.216446,138.433350 186.837402,144.915237 197.264923,149.119949 
	C218.040878,157.497482 238.588043,157.232620 259.100281,148.431168 
	C269.021545,144.174133 277.226501,137.484589 285.071533,130.406189 
	C290.227966,136.062302 294.720673,142.049286 300.356781,146.629181 
	C315.801575,159.179596 333.928223,163.271896 353.232178,159.677353 
	C368.974854,156.745926 382.372742,149.085678 392.580505,136.084488 
	C401.126801,125.199463 406.037323,112.995689 406.855042,99.455696 
	C407.847809,83.017166 403.587433,67.954216 393.312256,54.557217 
	C376.865173,33.113110 350.679749,25.222994 325.974548,30.477921 
	C315.072205,32.796906 305.843964,38.395931 296.916107,44.593056 
	C292.049133,35.793404 286.277374,28.182783 279.121246,21.527035 
	C268.578369,11.721340 256.335114,5.530571 242.216888,3.022718 
	C237.506775,2.186048 232.740570,1.665215 228.000000,1.000000 
	C303.599609,1.000000 379.199219,1.000000 455.000000,1.000000 
	C455.000000,89.687462 455.000000,178.375076 454.619202,267.342804 
	C452.900482,260.275360 452.165710,252.754150 450.109863,245.613266 
	C444.291565,225.403595 432.871674,208.848618 416.319427,195.760117 
	C399.017975,182.079178 379.479187,174.589340 357.432861,174.052856 
	C345.297668,173.757568 333.146179,173.825577 321.008057,174.052170 
	C310.231537,174.253357 299.820343,176.506088 289.926666,180.907410 
z"/>
<path fill="#1A9AAD" opacity="1.000000" stroke="none" 
	d="
M158.943726,42.912880 
	C168.302673,24.465715 183.195618,12.149351 202.443817,5.500794 
	C209.722977,2.986481 217.853317,2.936353 225.797821,1.381490 
	C226.444443,1.000000 226.888901,1.000000 227.666672,1.000000 
	C232.740570,1.665215 237.506775,2.186048 242.216888,3.022718 
	C256.335114,5.530571 268.578369,11.721340 279.121246,21.527035 
	C286.277374,28.182783 292.049133,35.793404 296.931946,44.977432 
	C297.589355,47.256798 298.047760,48.848240 298.600098,50.406376 
	C306.374908,72.339249 305.715607,93.799820 294.669220,114.525520 
	C291.796844,119.914825 288.195831,124.915794 284.929504,130.095139 
	C277.226501,137.484589 269.021545,144.174133 259.100281,148.431168 
	C238.588043,157.232620 218.040878,157.497482 197.264923,149.119949 
	C186.837402,144.915237 178.216446,138.433350 170.298630,129.833984 
	C169.579834,128.831696 169.369019,128.166977 168.959503,127.664124 
	C150.238602,104.677895 146.132538,79.167419 155.758698,51.291851 
	C156.733566,48.468880 157.877991,45.704468 158.943726,42.912880 
z"/>
<path fill="#1B7C9D" opacity="1.000000" stroke="none" 
	d="
M290.174408,181.151703 
	C299.820343,176.506088 310.231537,174.253357 321.008057,174.052170 
	C333.146179,173.825577 345.297668,173.757568 357.432861,174.052856 
	C379.479187,174.589340 399.017975,182.079178 416.319427,195.760117 
	C432.871674,208.848618 444.291565,225.403595 450.109863,245.613266 
	C452.165710,252.754150 452.900482,260.275360 454.619202,267.811462 
	C455.000000,289.020905 455.000000,310.041779 454.531342,331.531342 
	C422.726685,332.029816 391.390686,332.059631 360.054688,332.089417 
	C360.032745,320.268463 359.919006,308.446869 360.006592,296.626709 
	C360.243042,264.714752 351.624512,235.873688 330.532440,211.368423 
	C321.312683,200.656723 310.182831,192.284058 297.878479,185.425186 
	C295.411072,184.049789 292.908508,182.737427 290.174408,181.151703 
z"/>
<path fill="#1B7C9D" opacity="1.000000" stroke="none" 
	d="
M1.000000,267.468658 
	C1.653302,263.241943 2.479309,259.504486 2.929856,255.722290 
	C4.827435,239.792740 11.241362,225.677429 20.649132,212.959579 
	C36.133503,192.027084 56.771915,179.039047 82.396873,173.958282 
	C99.822006,170.503326 117.448868,171.688568 134.907593,172.362030 
	C145.077820,172.754349 155.111557,176.684677 165.592834,179.094391 
	C158.041489,183.953339 149.786362,188.290100 142.227585,193.615265 
	C121.542252,208.188080 108.009140,228.108200 99.987679,251.964554 
	C95.316948,265.855652 94.070427,280.192780 94.036400,294.711609 
	C94.009483,306.193481 94.007477,317.675415 93.512253,329.586670 
	C62.353397,330.010681 31.676699,330.005341 1.000000,330.000000 
	C1.000000,309.312439 1.000000,288.624878 1.000000,267.468658 
z"/>
<path fill="#FFFFFF" opacity="1.000000" stroke="none" 
	d="
M1.000000,330.468689 
	C31.676699,330.005341 62.353397,330.010681 93.493790,330.061768 
	C93.971649,338.092590 93.985825,346.077637 94.000000,354.531372 
	C63.115379,355.000000 32.230762,355.000000 1.000000,355.000000 
	C1.000000,346.982422 1.000000,338.959900 1.000000,330.468689 
z"/>
<path fill="#FFFFFF" opacity="1.000000" stroke="none" 
	d="
M360.031799,332.552643 
	C391.390686,332.059631 422.726685,332.029816 454.531342,332.000000 
	C455.000000,339.638123 455.000000,347.276276 455.000000,355.000000 
	C423.645813,355.000000 392.291565,355.000000 360.468628,355.000000 
	C360.002960,347.671967 360.005920,340.343903 360.031799,332.552643 
z"/>
<path fill="#1B7C9D" opacity="1.000000" stroke="none" 
	d="
M285.071533,130.406189 
	C288.195831,124.915794 291.796844,119.914825 294.669220,114.525520 
	C305.715607,93.799820 306.374908,72.339249 298.600098,50.406376 
	C298.047760,48.848240 297.589355,47.256798 297.071411,45.296467 
	C305.843964,38.395931 315.072205,32.796906 325.974548,30.477921 
	C350.679749,25.222994 376.865173,33.113110 393.312256,54.557217 
	C403.587433,67.954216 407.847809,83.017166 406.855042,99.455696 
	C406.037323,112.995689 401.126801,125.199463 392.580505,136.084488 
	C382.372742,149.085678 368.974854,156.745926 353.232178,159.677353 
	C333.928223,163.271896 315.801575,159.179596 300.356781,146.629181 
	C294.720673,142.049286 290.227966,136.062302 285.071533,130.406189 
z"/>
<path fill="#1B7C9D" opacity="1.000000" stroke="none" 
	d="
M158.614990,42.837212 
	C157.877991,45.704468 156.733566,48.468880 155.758698,51.291851 
	C146.132538,79.167419 150.238602,104.677895 168.959503,127.664124 
	C169.369019,128.166977 169.579834,128.831696 169.977295,129.757874 
	C159.831985,145.987991 145.025787,154.740402 126.649170,158.015900 
	C111.020386,160.801620 96.387512,158.102936 82.673271,150.251892 
	C65.762108,140.570694 54.926994,126.144135 51.136078,107.120491 
	C47.325615,87.998749 50.612469,69.932930 62.504307,54.015125 
	C73.593094,39.172253 88.214386,30.445776 106.790573,27.885237 
	C124.613739,25.428492 140.338776,30.007116 154.856781,39.990437 
	C156.064178,40.820713 157.146072,41.833530 158.614990,42.837212 
z"/>
</svg>