<svg version="1.1" id="Layer_1" xmlns="http://www.w3.org/2000/svg" xmlns:xlink="http://www.w3.org/1999/xlink" x="0px" y="0px"
	 width="100%" viewBox="0 0 124 111" enable-background="new 0 0 124 111" xml:space="preserve">
<path fill="#9BFCFE" opacity="1.000000" stroke="none" 
	d="
M58.000000,1.000000 
	C61.030594,1.000000 64.061188,1.000000 67.773727,1.287491 
	C76.537727,2.931448 82.271454,7.758112 86.966347,14.485784 
	C92.047142,26.340475 91.504890,37.084579 82.993187,46.915733 
	C80.757706,49.497753 81.150978,51.708008 84.185852,53.804031 
	C95.278687,61.465263 100.505157,72.231064 100.536652,85.657188 
	C100.546349,89.789810 100.862251,93.921722 101.023407,98.455902 
	C101.137016,105.877037 96.782211,109.482063 91.000000,112.000000 
	C72.645775,112.000000 54.291546,112.000000 35.270058,111.722702 
	C28.088457,108.807236 25.237640,103.968369 26.019880,96.542618 
	C26.128923,92.587868 26.213820,89.092079 26.148941,85.599060 
	C25.928438,73.727188 30.278801,63.883156 39.234905,56.119812 
	C41.337639,54.297115 43.687908,52.759979 45.903454,51.107018 
	C44.905521,49.368191 44.204285,47.650734 43.083969,46.274403 
	C35.616062,37.099930 34.598537,27.136616 39.126438,16.389532 
	C39.557671,15.365999 39.684673,14.214289 40.253593,12.952822 
	C44.591553,6.223410 51.351315,3.693928 58.000000,1.000000 
z"/>
<path fill="#1D1E1C" opacity="1.000000" stroke="none" 
	d="
M39.952915,13.122085 
	C39.684673,14.214289 39.557671,15.365999 39.126438,16.389532 
	C34.598537,27.136616 35.616062,37.099930 43.083969,46.274403 
	C44.204285,47.650734 44.905521,49.368191 45.903454,51.107018 
	C43.687908,52.759979 41.337639,54.297115 39.234905,56.119812 
	C30.278801,63.883156 25.928438,73.727188 26.148941,85.599060 
	C26.213820,89.092079 26.128923,92.587868 25.558884,96.541962 
	C21.039879,97.001549 17.039631,96.668831 13.117873,97.081696 
	C7.612091,97.661316 3.864018,95.366211 1.000000,91.000000 
	C1.000000,84.645599 1.000000,78.291206 1.370255,71.339249 
	C3.177522,61.116577 8.341456,54.137627 17.118057,49.739574 
	C16.408400,48.984489 15.984471,48.470856 15.498138,48.025349 
	C8.199549,41.339489 6.799232,28.449352 12.872482,20.200102 
	C18.996225,11.882270 28.108061,9.136918 39.952915,13.122085 
z"/>
<path fill="#1E1E1C" opacity="1.000000" stroke="none" 
	d="
M101.037949,98.053955 
	C100.862251,93.921722 100.546349,89.789810 100.536652,85.657188 
	C100.505157,72.231064 95.278687,61.465263 84.185852,53.804031 
	C81.150978,51.708008 80.757706,49.497753 82.993187,46.915733 
	C91.504890,37.084579 92.047142,26.340475 87.345528,14.330470 
	C88.963943,13.501353 90.270012,13.379933 91.413170,12.883423 
	C100.318878,9.015380 113.982239,17.497385 116.128777,26.239504 
	C118.450958,35.696968 117.264420,43.980877 108.902397,50.404560 
	C117.207001,54.804020 122.145836,61.564732 125.000000,70.000000 
	C125.000000,77.354256 125.000000,84.708504 124.646202,92.626144 
	C122.080635,96.667480 119.150711,98.400551 114.799736,98.080612 
	C110.236496,97.745064 105.627144,98.036522 101.037949,98.053955 
z"/>
<path fill="#FFFFFF" opacity="1.000000" stroke="none" 
	d="
M125.000000,69.531342 
	C122.145836,61.564732 117.207001,54.804020 108.902397,50.404560 
	C117.264420,43.980877 118.450958,35.696968 116.128777,26.239504 
	C113.982239,17.497385 100.318878,9.015380 91.413170,12.883423 
	C90.270012,13.379933 88.963943,13.501353 87.354156,13.951847 
	C82.271454,7.758112 76.537727,2.931448 68.227844,1.287491 
	C86.933792,1.000000 105.867577,1.000000 125.000000,1.000000 
	C125.000000,23.687174 125.000000,46.374928 125.000000,69.531342 
z"/>
<path fill="#FFFFFF" opacity="1.000000" stroke="none" 
	d="
M40.253593,12.952822 
	C28.108061,9.136918 18.996225,11.882270 12.872482,20.200102 
	C6.799232,28.449352 8.199549,41.339489 15.498138,48.025349 
	C15.984471,48.470856 16.408400,48.984489 17.118057,49.739574 
	C8.341456,54.137627 3.177522,61.116577 1.370255,70.870850 
	C1.000000,47.747330 1.000000,24.494663 1.000000,1.000000 
	C19.686865,1.000000 38.374775,1.000000 57.531342,1.000000 
	C51.351315,3.693928 44.591553,6.223410 40.253593,12.952822 
z"/>
<path fill="#FFFFFF" opacity="1.000000" stroke="none" 
	d="
M1.000000,91.468910 
	C3.864018,95.366211 7.612091,97.661316 13.117873,97.081696 
	C17.039631,96.668831 21.039879,97.001549 25.466095,97.002197 
	C25.237640,103.968369 28.088457,108.807236 34.801399,111.722702 
	C23.757713,112.000000 12.515425,112.000000 1.000000,112.000000 
	C1.000000,105.315071 1.000000,98.626450 1.000000,91.468910 
z"/>
<path fill="#FFFFFF" opacity="1.000000" stroke="none" 
	d="
M101.023407,98.455902 
	C105.627144,98.036522 110.236496,97.745064 114.799736,98.080612 
	C119.150711,98.400551 122.080635,96.667480 124.646202,93.094772 
	C125.000000,99.280579 125.000000,105.561157 125.000000,112.000000 
	C113.979515,112.000000 102.958412,112.000000 91.468658,112.000000 
	C96.782211,109.482063 101.137016,105.877037 101.023407,98.455902 
z"/>
</svg>