<svg version="1.1" id="Layer_1" xmlns="http://www.w3.org/2000/svg" xmlns:xlink="http://www.w3.org/1999/xlink" x="0px" y="0px"
	 width="100%" viewBox="0 0 386 397" enable-background="new 0 0 386 397" xml:space="preserve">
<path fill="#1A9AAD" opacity="1.000000" stroke="none" 
	d="
M146.000000,398.000000 
	C114.645775,398.000000 83.291542,398.000000 51.357010,397.654236 
	C50.100494,396.879669 49.476871,396.297943 48.740299,396.044586 
	C33.523735,390.810699 23.735188,378.259674 23.837982,361.320648 
	C24.236324,295.678162 24.057381,230.031723 23.949690,164.386993 
	C23.929117,151.847000 28.913618,142.283783 39.553642,135.854385 
	C58.939384,124.140251 78.454865,112.641014 97.895943,101.018211 
	C128.379608,82.793633 158.856903,64.558296 189.305481,46.275204 
	C192.634644,44.276188 195.607727,43.799339 199.181412,45.976303 
	C211.564270,53.519512 224.117126,60.782928 236.561127,68.226654 
	C273.751373,90.473022 310.960754,112.687912 348.072083,135.065308 
	C358.311859,141.239700 363.964203,150.488708 363.973999,162.634872 
	C364.028229,229.945862 364.003601,297.256897 363.980591,364.567902 
	C363.979980,366.370667 363.841797,368.201355 363.512543,369.971558 
	C361.008087,383.436249 351.845612,390.903809 340.023254,395.998291 
	C339.211945,396.347900 338.668182,397.318298 338.000000,398.000000 
	C307.312439,398.000000 276.624878,398.000000 245.486649,397.574036 
	C245.357315,395.231232 245.955704,393.314850 245.958847,391.397491 
	C246.015396,356.918915 245.772781,322.437714 246.154984,287.963287 
	C246.254242,279.010742 238.354446,272.954590 231.356949,272.974365 
	C207.371994,273.042236 183.386490,272.940704 159.401688,273.032898 
	C150.934464,273.065430 145.005356,279.315826 145.003174,287.813416 
	C144.995148,318.960815 144.951340,350.108337 145.045029,381.255463 
	C145.061813,386.837891 145.666672,392.418518 146.000000,398.000000 
z"/>
<path fill="#FFFFFF" opacity="1.000000" stroke="none" 
	d="
M338.468658,398.000000 
	C338.668182,397.318298 339.211945,396.347900 340.023254,395.998291 
	C351.845612,390.903809 361.008087,383.436249 363.512543,369.971558 
	C363.841797,368.201355 363.979980,366.370667 363.980591,364.567902 
	C364.003601,297.256897 364.028229,229.945862 363.973999,162.634872 
	C363.964203,150.488708 358.311859,141.239700 348.072083,135.065308 
	C310.960754,112.687912 273.751373,90.473022 236.561127,68.226654 
	C224.117126,60.782928 211.564270,53.519512 199.181412,45.976303 
	C195.607727,43.799339 192.634644,44.276188 189.305481,46.275204 
	C158.856903,64.558296 128.379608,82.793633 97.895943,101.018211 
	C78.454865,112.641014 58.939384,124.140251 39.553642,135.854385 
	C28.913618,142.283783 23.929117,151.847000 23.949690,164.386993 
	C24.057381,230.031723 24.236324,295.678162 23.837982,361.320648 
	C23.735188,378.259674 33.523735,390.810699 48.740299,396.044586 
	C49.476871,396.297943 50.100494,396.879669 50.888351,397.654236 
	C34.356216,398.000000 17.712429,398.000000 1.000000,398.000000 
	C1.000000,308.645782 1.000000,219.291550 1.332632,129.563446 
	C3.977418,131.737442 6.289572,134.285309 8.957411,136.937653 
	C11.154855,137.639206 12.996614,138.236252 15.197501,138.904221 
	C18.387257,138.019318 21.217882,137.063522 24.410437,136.055359 
	C31.894585,131.784866 39.059746,127.637321 46.131065,123.335526 
	C68.209229,109.904373 90.246681,96.406296 112.309731,82.950272 
	C138.127182,67.204483 163.980133,51.516594 189.745041,35.685352 
	C192.816956,33.797806 195.194275,33.826099 198.280258,35.700314 
	C222.456848,50.383518 246.721649,64.921623 270.976013,79.476494 
	C289.236572,90.434525 307.509918,101.371315 325.800323,112.279442 
	C338.924377,120.106438 352.048828,127.934181 365.249786,135.630051 
	C370.268463,138.555817 375.520172,138.394272 380.319397,135.120178 
	C382.788757,133.435547 384.788208,131.062149 387.000000,129.000000 
	C387.000000,218.543167 387.000000,308.086334 387.000000,398.000000 
	C370.981018,398.000000 354.959167,398.000000 338.468658,398.000000 
z"/>
<path fill="#1B7C9D" opacity="1.000000" stroke="none" 
	d="
M387.000000,128.539368 
	C384.788208,131.062149 382.788757,133.435547 380.319397,135.120178 
	C375.520172,138.394272 370.268463,138.555817 365.249786,135.630051 
	C352.048828,127.934181 338.924377,120.106438 325.800323,112.279442 
	C307.509918,101.371315 289.236572,90.434525 270.976013,79.476494 
	C246.721649,64.921623 222.456848,50.383518 198.280258,35.700314 
	C195.194275,33.826099 192.816956,33.797806 189.745041,35.685352 
	C163.980133,51.516594 138.127182,67.204483 112.309731,82.950272 
	C90.246681,96.406296 68.209229,109.904373 46.131065,123.335526 
	C39.059746,127.637321 31.894585,131.784866 24.173836,135.896103 
	C20.626137,136.698120 16.652929,134.667938 14.838371,138.833313 
	C12.996614,138.236252 11.154855,137.639206 9.021311,136.508270 
	C8.115963,134.186157 8.001260,131.878220 6.788558,130.714157 
	C3.964495,128.003357 3.466892,125.015671 4.649770,121.659386 
	C5.959977,117.941818 7.613525,114.345261 9.215285,110.467278 
	C9.313011,110.238548 9.805255,110.166679 9.988636,110.420601 
	C10.851591,110.811897 11.531164,110.949280 12.210737,111.086655 
	C12.102134,110.377121 11.993530,109.667595 12.054550,108.640709 
	C13.084535,107.937798 13.944896,107.552238 14.988640,107.420593 
	C15.851591,107.811897 16.531160,107.949272 17.210728,108.086655 
	C17.102127,107.377121 16.993526,106.667595 17.054640,105.640633 
	C18.085022,104.937698 18.945690,104.552185 20.018408,104.444595 
	C23.739792,105.888519 25.859137,105.335899 25.054443,100.640808 
	C26.084473,99.937851 26.944864,99.552269 27.988640,99.420601 
	C28.851597,99.811897 29.531168,99.949272 30.210739,100.086655 
	C30.102135,99.377121 29.993530,98.667595 30.051613,97.643005 
	C48.574661,86.287048 66.968483,75.307831 85.277489,64.188950 
	C106.091446,51.548828 126.848442,38.814537 147.593994,26.062271 
	C161.096085,17.762548 174.533569,9.357734 188.000000,1.000000 
	C191.361282,1.000000 194.722580,1.000000 198.662628,1.336034 
	C203.766724,4.238128 208.349457,6.708642 212.807739,9.386324 
	C235.538345,23.038548 258.226532,36.761448 280.953979,50.418926 
	C286.426392,53.707436 291.991852,56.841137 298.000000,60.327759 
	C298.000000,55.700943 298.050720,51.872986 297.990814,48.046764 
	C297.784760,34.890236 304.856537,25.436695 320.478973,26.956667 
	C329.661194,27.850044 335.204498,34.112129 335.090027,43.014145 
	C334.929993,55.455833 335.284851,67.907104 335.628235,80.348503 
	C335.670624,81.885071 336.581635,84.075150 337.787109,84.794579 
	C347.117706,90.363197 356.819885,95.326881 366.005829,101.114632 
	C373.419128,105.785492 382.197021,108.824814 387.000000,117.000000 
	C387.000000,120.692909 387.000000,124.385826 387.000000,128.539368 
z"/>
<path fill="#FFFFFF" opacity="1.000000" stroke="none" 
	d="
M146.468658,398.000000 
	C145.666672,392.418518 145.061813,386.837891 145.045029,381.255463 
	C144.951340,350.108337 144.995148,318.960815 145.003174,287.813416 
	C145.005356,279.315826 150.934464,273.065430 159.401688,273.032898 
	C183.386490,272.940704 207.371994,273.042236 231.356949,272.974365 
	C238.354446,272.954590 246.254242,279.010742 246.154984,287.963287 
	C245.772781,322.437714 246.015396,356.918915 245.958847,391.397491 
	C245.955704,393.314850 245.357315,395.231232 245.017990,397.574036 
	C212.312439,398.000000 179.624878,398.000000 146.468658,398.000000 
z"/>
<path fill="#FFFFFF" opacity="1.000000" stroke="none" 
	d="
M27.805256,99.166679 
	C26.944864,99.552269 26.084473,99.937851 24.762901,100.758163 
	C22.803268,102.184143 21.304813,103.175415 19.806358,104.166679 
	C18.945690,104.552185 18.085022,104.937698 16.818153,105.710831 
	C15.876385,106.454521 15.340819,106.810600 14.805255,107.166679 
	C13.944896,107.552238 13.084535,107.937798 11.818063,108.710907 
	C10.876386,109.454521 10.340819,109.810600 9.805254,110.166679 
	C9.805255,110.166679 9.313011,110.238548 8.865019,110.600800 
	C5.944686,113.308708 3.472344,115.654358 1.000001,118.000000 
	C1.000000,79.056190 1.000000,40.112373 1.000000,1.000000 
	C63.020794,1.000000 125.041740,1.000000 187.531342,1.000000 
	C174.533569,9.357734 161.096085,17.762548 147.593994,26.062271 
	C126.848442,38.814537 106.091446,51.548828 85.277489,64.188950 
	C66.968483,75.307831 48.574661,86.287048 29.815125,97.713196 
	C28.876387,98.454529 28.340822,98.810600 27.805256,99.166679 
z"/>
<path fill="#FFFFFF" opacity="1.000000" stroke="none" 
	d="
M387.000000,116.531342 
	C382.197021,108.824814 373.419128,105.785492 366.005829,101.114632 
	C356.819885,95.326881 347.117706,90.363197 337.787109,84.794579 
	C336.581635,84.075150 335.670624,81.885071 335.628235,80.348503 
	C335.284851,67.907104 334.929993,55.455833 335.090027,43.014145 
	C335.204498,34.112129 329.661194,27.850044 320.478973,26.956667 
	C304.856537,25.436695 297.784760,34.890236 297.990814,48.046764 
	C298.050720,51.872986 298.000000,55.700943 298.000000,60.327759 
	C291.991852,56.841137 286.426392,53.707436 280.953979,50.418926 
	C258.226532,36.761448 235.538345,23.038548 212.807739,9.386324 
	C208.349457,6.708642 203.766724,4.238128 199.120697,1.336034 
	C261.576385,1.000000 324.152740,1.000000 387.000000,1.000000 
	C387.000000,39.353802 387.000000,77.708244 387.000000,116.531342 
z"/>
<path fill="#1B7C9D" opacity="1.000000" stroke="none" 
	d="
M1.000001,118.458069 
	C3.472344,115.654358 5.944686,113.308708 8.767294,110.829529 
	C7.613525,114.345261 5.959977,117.941818 4.649770,121.659386 
	C3.466892,125.015671 3.964495,128.003357 6.788558,130.714157 
	C8.001260,131.878220 8.115963,134.186157 8.665627,136.403778 
	C6.289572,134.285309 3.977418,131.737442 1.332632,129.094788 
	C1.000000,125.638710 1.000000,122.277428 1.000001,118.458069 
z"/>
<path fill="#1B7C9D" opacity="1.000000" stroke="none" 
	d="
M15.197500,138.904221 
	C16.652929,134.667938 20.626137,136.698120 23.811909,135.948456 
	C21.217882,137.063522 18.387257,138.019318 15.197500,138.904221 
z"/>
<path fill="#1B7C9D" opacity="1.000000" stroke="none" 
	d="
M20.018408,104.444595 
	C21.304813,103.175415 22.803268,102.184143 24.593266,101.075523 
	C25.859137,105.335899 23.739792,105.888519 20.018408,104.444595 
z"/>
<path fill="#1B7C9D" opacity="1.000000" stroke="none" 
	d="
M27.988640,99.420601 
	C28.340822,98.810600 28.876387,98.454529 29.648439,98.028259 
	C29.993530,98.667595 30.102135,99.377121 30.210739,100.086655 
	C29.531168,99.949272 28.851597,99.811897 27.988640,99.420601 
z"/>
<path fill="#1B7C9D" opacity="1.000000" stroke="none" 
	d="
M14.988638,107.420593 
	C15.340819,106.810600 15.876385,106.454521 16.648438,106.028259 
	C16.993526,106.667595 17.102127,107.377121 17.210728,108.086655 
	C16.531160,107.949272 15.851591,107.811897 14.988638,107.420593 
z"/>
<path fill="#1B7C9D" opacity="1.000000" stroke="none" 
	d="
M9.988636,110.420601 
	C10.340819,109.810600 10.876386,109.454521 11.648439,109.028259 
	C11.993530,109.667595 12.102134,110.377121 12.210737,111.086655 
	C11.531164,110.949280 10.851591,110.811897 9.988636,110.420601 
z"/>
</svg>