<svg version="1.1" id="Layer_1" xmlns="http://www.w3.org/2000/svg" xmlns:xlink="http://www.w3.org/1999/xlink" x="0px" y="0px"
	 width="100%" viewBox="0 0 610 736" enable-background="new 0 0 610 736" xml:space="preserve">
<path fill="#FFFFFF" opacity="1.000000" stroke="none" 
	d="
M38.000000,737.000000 
	C25.675846,737.000000 13.351692,737.000000 1.000000,737.000000 
	C1.000000,553.645752 1.000000,370.291534 1.352582,186.610535 
	C3.488226,197.338531 12.142802,203.446396 23.018208,200.849899 
	C28.714703,199.489868 33.749901,197.204803 36.219753,190.770096 
	C38.415070,185.050674 41.849449,179.763184 45.070248,174.488571 
	C58.710083,152.151001 76.822060,133.429199 94.936363,114.903915 
	C109.691216,99.814308 125.665642,85.861610 141.685425,72.086418 
	C150.544022,64.469009 160.066605,57.286449 170.234360,51.595207 
	C195.682220,37.351158 224.070084,31.720917 252.543869,31.394899 
	C344.850769,30.338011 437.177338,31.000019 529.496338,31.000021 
	C531.277100,31.000021 533.057861,31.000019 534.626038,31.000019 
	C535.497009,39.938442 538.954773,46.952229 545.507202,53.104973 
	C541.474915,58.112888 537.424744,62.995247 533.534485,68.001862 
	C521.009827,84.120491 508.603516,100.331268 496.041687,116.420708 
	C477.940399,139.605103 459.749603,162.719681 441.572266,185.844589 
	C440.170471,187.627960 438.978699,188.606522 436.247162,186.921158 
	C418.209045,175.791595 399.184998,166.910370 378.766907,160.781876 
	C359.199921,154.908829 339.255157,151.445999 319.012146,151.286194 
	C303.814362,151.166245 288.546906,153.252747 273.398834,155.086807 
	C253.562378,157.488541 234.919052,164.245026 216.902222,172.632233 
	C200.753891,180.149643 185.765579,189.510910 171.652832,200.522324 
	C157.381790,211.657242 144.669846,224.262161 133.476318,238.287079 
	C118.484581,257.070892 106.602882,277.798584 97.923607,300.303345 
	C88.764267,324.052826 83.306183,348.676025 82.225677,374.020294 
	C81.630119,387.989685 82.424492,402.175446 84.243645,416.047119 
	C86.116074,430.324982 89.175697,444.576691 93.175919,458.417847 
	C100.508011,483.787628 112.324776,507.138733 128.603104,528.029053 
	C136.049057,537.584656 144.102921,546.666565 151.572418,556.095947 
	C150.450836,557.055420 149.545853,557.810669 148.838486,558.719666 
	C132.633621,579.544250 116.491745,600.417908 100.250847,621.214294 
	C85.204674,640.480896 70.056931,659.668152 54.494610,678.937622 
	C41.382339,678.202515 30.090063,680.841675 21.928516,691.570496 
	C15.158662,700.469788 13.924310,712.875305 20.543613,723.350281 
	C24.872681,730.200989 31.225723,733.683350 38.000000,737.000000 
z"/>
<path fill="#FFFFFF" opacity="1.000000" stroke="none" 
	d="
M574.000000,1.000000 
	C586.324036,1.000000 598.648071,1.000000 611.000000,1.000000 
	C611.000000,182.020889 611.000000,363.041779 610.658020,544.399658 
	C607.457520,534.882324 600.809937,530.529419 591.187866,531.965088 
	C583.536194,533.106750 578.473022,536.626343 575.133606,544.174744 
	C567.228760,562.042969 555.172119,577.287109 542.497681,592.021118 
	C538.574829,596.581360 534.796021,601.265503 530.643799,606.030334 
	C503.924744,632.686768 478.059296,659.812439 446.651733,681.201660 
	C444.227661,682.487488 442.221893,683.877380 440.064667,684.967529 
	C418.615112,695.806946 395.405487,700.015198 371.872620,703.018921 
	C367.232391,703.611145 362.622894,704.444397 357.535309,705.095947 
	C324.047302,705.405823 291.023193,705.786194 257.535187,706.095947 
	C224.713531,706.405823 192.355820,706.786194 159.534332,707.095886 
	C134.145538,707.016479 109.220444,706.989868 84.295494,707.037659 
	C82.546539,707.041016 80.798637,707.595154 79.028633,707.481140 
	C78.782043,705.624512 78.592613,704.173462 78.326180,702.736633 
	C76.856544,694.810669 71.798019,689.219910 66.423950,683.883057 
	C70.348755,679.109131 73.991524,674.505737 77.586456,669.865417 
	C90.070580,653.750793 102.487778,637.584045 115.024956,621.510864 
	C129.978455,602.339905 145.029282,583.244873 160.388885,564.071777 
	C162.364090,565.382812 163.964233,566.769226 165.616364,568.090637 
	C184.641281,583.307556 204.984329,596.275330 227.723618,605.361694 
	C253.752350,615.762451 280.751892,621.257080 308.715057,621.958557 
	C327.502045,622.429932 346.006165,620.196655 364.390869,616.127808 
	C387.613098,610.988464 409.510315,602.568298 429.864716,590.458130 
	C451.277985,577.717896 470.311707,562.019836 486.660858,543.011963 
	C497.575562,530.322327 507.134583,516.781982 515.262634,502.239502 
	C533.116943,470.294952 542.486328,435.781921 544.896790,399.414276 
	C546.078857,381.581055 545.265015,363.590881 541.675232,346.139435 
	C538.324402,329.850250 533.505371,313.735657 527.865112,298.072632 
	C517.557922,269.449585 500.863983,244.504227 479.880585,222.627014 
	C470.463654,212.808945 459.720764,204.262650 449.474091,195.044418 
	C454.975983,188.230133 460.924194,181.045837 466.673676,173.705887 
	C480.672028,155.835114 494.570709,137.886322 508.523407,119.979774 
	C523.781738,100.397591 539.024170,80.802673 554.404236,61.316441 
	C555.289978,60.194210 557.444580,59.304264 558.850098,59.492157 
	C565.602783,60.394844 572.136169,60.343014 578.693176,58.033737 
	C594.815796,52.355602 602.339905,31.956547 595.210205,18.222572 
	C590.477905,9.106671 583.028198,4.322082 574.000000,1.000000 
z"/>
<path fill="#009AAD" opacity="1.000000" stroke="none" 
	d="
M573.531372,1.000000 
	C583.028198,4.322082 590.477905,9.106671 595.210205,18.222572 
	C602.339905,31.956547 594.815796,52.355602 578.693176,58.033737 
	C572.136169,60.343014 565.602783,60.394844 558.850098,59.492157 
	C557.444580,59.304264 555.289978,60.194210 554.404236,61.316441 
	C539.024170,80.802673 523.781738,100.397591 508.523407,119.979774 
	C494.570709,137.886322 480.672028,155.835114 466.673676,173.705887 
	C460.924194,181.045837 454.975983,188.230133 449.474091,195.044418 
	C459.720764,204.262650 470.463654,212.808945 479.880585,222.627014 
	C500.863983,244.504227 517.557922,269.449585 527.865112,298.072632 
	C533.505371,313.735657 538.324402,329.850250 541.675232,346.139435 
	C545.265015,363.590881 546.078857,381.581055 544.896790,399.414276 
	C542.486328,435.781921 533.116943,470.294952 515.262634,502.239502 
	C507.134583,516.781982 497.575562,530.322327 486.660858,543.011963 
	C470.311707,562.019836 451.277985,577.717896 429.864716,590.458130 
	C409.510315,602.568298 387.613098,610.988464 364.390869,616.127808 
	C346.006165,620.196655 327.502045,622.429932 308.715057,621.958557 
	C280.751892,621.257080 253.752350,615.762451 227.723618,605.361694 
	C204.984329,596.275330 184.641281,583.307556 165.616364,568.090637 
	C163.964233,566.769226 162.364090,565.382812 160.349274,563.719116 
	C157.266174,560.928833 154.573624,558.446045 151.881073,555.963257 
	C144.102921,546.666565 136.049057,537.584656 128.603104,528.029053 
	C112.324776,507.138733 100.508011,483.787628 93.175919,458.417847 
	C89.175697,444.576691 86.116074,430.324982 84.243645,416.047119 
	C82.424492,402.175446 81.630119,387.989685 82.225677,374.020294 
	C83.306183,348.676025 88.764267,324.052826 97.923607,300.303345 
	C106.602882,277.798584 118.484581,257.070892 133.476318,238.287079 
	C144.669846,224.262161 157.381790,211.657242 171.652832,200.522324 
	C185.765579,189.510910 200.753891,180.149643 216.902222,172.632233 
	C234.919052,164.245026 253.562378,157.488541 273.398834,155.086807 
	C288.546906,153.252747 303.814362,151.166245 319.012146,151.286194 
	C339.255157,151.445999 359.199921,154.908829 378.766907,160.781876 
	C399.184998,166.910370 418.209045,175.791595 436.247162,186.921158 
	C438.978699,188.606522 440.170471,187.627960 441.572266,185.844589 
	C459.749603,162.719681 477.940399,139.605103 496.041687,116.420708 
	C508.603516,100.331268 521.009827,84.120491 533.534485,68.001862 
	C537.424744,62.995247 541.474915,58.112888 545.507202,53.104973 
	C538.954773,46.952229 535.497009,39.938442 534.626038,31.000019 
	C533.057861,31.000019 531.277100,31.000021 529.496338,31.000021 
	C437.177338,31.000019 344.850769,30.338011 252.543869,31.394899 
	C224.070084,31.720917 195.682220,37.351158 170.234360,51.595207 
	C160.066605,57.286449 150.544022,64.469009 141.685425,72.086418 
	C125.665642,85.861610 109.691216,99.814308 94.936363,114.903915 
	C76.822060,133.429199 58.710083,152.151001 45.070248,174.488571 
	C41.849449,179.763184 38.415070,185.050674 36.219753,190.770096 
	C33.749901,197.204803 28.714703,199.489868 23.018208,200.849899 
	C12.142802,203.446396 3.488226,197.338531 1.352582,186.141876 
	C1.000000,184.285645 1.000000,182.571289 1.341535,180.304535 
	C5.412573,171.629272 9.227531,163.544327 12.855321,155.376282 
	C23.133657,132.234375 33.268501,109.028595 43.588974,85.905602 
	C51.533665,68.105537 60.176586,50.599705 67.593048,32.585918 
	C75.870697,12.480376 92.248642,3.350889 110.898468,3.133295 
	C170.294006,2.440307 229.695999,2.203831 289.096191,2.036487 
	C348.231750,1.869889 407.368103,2.008958 466.504089,1.957977 
	C468.336334,1.956398 470.168030,1.333331 472.000000,1.000002 
	C505.687561,1.000000 539.375122,1.000000 573.531372,1.000000 
M250.726517,192.757034 
	C252.086716,190.313370 253.446899,187.869705 255.205978,184.709396 
	C252.208878,185.276291 250.159653,185.663910 247.327637,186.022705 
	C245.183243,186.699432 243.038849,187.376144 240.217484,188.281326 
	C235.511536,190.538391 230.805573,192.795456 225.419067,195.289001 
	C222.844742,196.272690 220.088455,196.944321 217.739197,198.314041 
	C214.318436,200.308487 211.190720,202.805542 207.302536,205.215546 
	C205.905075,206.159912 204.507599,207.104279 202.317993,208.022232 
	C195.171021,209.760086 189.616547,213.653580 185.299728,220.225739 
	C182.144135,223.148743 178.988541,226.071747 175.244308,228.686630 
	C173.495117,229.455597 171.745941,230.224564 169.399353,231.286087 
	C159.934357,241.857803 150.469376,252.429504 140.704834,263.605408 
	C135.068222,272.556976 128.865509,281.207794 123.916328,290.524536 
	C114.474266,308.299042 107.985374,327.291046 104.302475,347.057556 
	C102.173035,358.486481 99.183723,370.068665 102.055954,381.867462 
	C103.144859,386.340546 104.703918,390.699188 106.006897,396.010620 
	C106.336380,399.770172 106.383560,403.580322 107.046127,407.280212 
	C109.423683,420.556824 111.126778,434.039001 114.693771,447.000702 
	C122.996567,477.171326 138.536713,503.621796 159.410553,526.790344 
	C179.366959,548.940613 202.253281,567.490723 229.658920,579.816650 
	C236.846222,583.049133 244.505463,585.232361 252.335327,588.476196 
	C256.163513,591.140320 259.673950,594.986450 265.766510,592.247009 
	C279.464539,594.164673 293.112732,596.844604 306.877289,597.744202 
	C316.806488,598.393066 326.888428,596.638062 336.906036,596.016907 
	C352.295166,595.062622 367.177643,591.147705 381.407715,585.868225 
	C396.236359,580.366516 410.660034,573.371765 424.472748,565.624756 
	C446.788055,553.108948 465.213165,535.719360 480.728271,515.470642 
	C492.627655,499.940857 502.290680,483.027100 509.127045,464.571747 
	C514.611938,449.764771 519.103088,434.726074 521.681396,418.481964 
	C524.875671,407.357910 524.546204,395.939178 523.999268,384.603577 
	C523.393738,372.053833 522.954102,359.374359 520.731140,347.060242 
	C518.696533,335.790070 514.379456,324.931976 511.033295,313.129395 
	C507.047241,304.702606 503.061188,296.275848 499.052032,287.117676 
	C495.044739,280.738647 491.037415,274.359619 486.945465,267.281464 
	C482.613098,261.522888 478.280731,255.764297 473.678040,249.399796 
	C468.141144,243.919037 462.604218,238.438278 456.754150,232.366257 
	C454.143616,230.277374 451.533112,228.188492 448.292114,225.804550 
	C443.549713,222.227951 438.807343,218.651352 433.944580,214.328522 
	C432.281311,213.523224 430.618073,212.717911 428.713257,211.266663 
	C410.132843,199.166672 390.465576,189.244034 368.965363,183.647675 
	C357.544830,180.674973 345.730133,179.216690 333.269348,176.939651 
	C327.814758,176.651031 322.360138,176.362411 315.982635,176.009964 
	C310.691681,176.024292 305.400726,176.038635 299.220947,176.019577 
	C297.149750,176.016006 295.078522,176.012436 292.237183,176.013794 
	C290.491852,176.342926 288.746552,176.672073 286.205414,177.001495 
	C282.970642,176.625214 281.386719,178.678284 281.214172,181.322830 
	C281.024872,184.224426 281.725067,187.184052 281.707520,190.740845 
	C278.112305,193.135040 274.517120,195.529221 270.307587,198.188385 
	C266.933990,201.564865 263.089813,204.600281 260.323700,208.417007 
	C257.734161,211.990051 255.434723,212.427933 251.459213,209.978760 
	C250.953018,209.618805 250.446823,209.258865 249.696365,208.257721 
	C248.414505,207.362579 247.132629,206.467438 245.850769,205.572296 
	C245.313049,204.854401 244.775314,204.136490 244.237579,203.418594 
	C247.265900,201.657074 250.294220,199.895554 253.725388,197.899704 
	C251.384003,197.002747 250.142456,196.527115 249.465683,195.628189 
	C249.658463,194.719864 249.851242,193.811554 250.726517,192.757034 
z"/>
<path fill="#FFFFFF" opacity="1.000000" stroke="none" 
	d="
M611.000000,554.000000 
	C611.000000,614.961243 611.000000,675.922546 611.000000,737.000000 
	C444.311340,737.000000 277.622650,737.000000 110.664459,736.610962 
	C126.929314,736.092468 143.463684,735.962952 160.460159,735.905457 
	C193.281204,735.262817 225.640167,734.548157 258.462891,733.905396 
	C291.621765,733.643494 324.316864,733.310059 357.011932,732.970337 
	C357.341461,732.966858 357.670166,732.880981 358.455109,732.905151 
	C388.273804,732.262268 417.636597,731.547852 447.463196,730.905029 
	C468.575897,730.650879 489.243408,730.736694 509.864960,729.805542 
	C518.646240,729.409058 526.833435,725.828796 533.453186,719.023682 
	C535.200989,717.674255 537.058289,716.600525 537.920715,714.993042 
	C543.355957,704.861572 549.049927,694.827271 553.758179,684.356140 
	C563.667480,662.317688 573.030151,640.033325 582.600281,617.842651 
	C588.765747,603.546509 594.816772,589.200317 601.086243,574.950134 
	C604.196289,567.881165 607.683411,560.978088 611.000000,554.000000 
z"/>
<path fill="#FFFFFF" opacity="1.000000" stroke="none" 
	d="
M471.531342,1.000002 
	C470.168030,1.333331 468.336334,1.956398 466.504089,1.957977 
	C407.368103,2.008958 348.231750,1.869889 289.096191,2.036487 
	C229.695999,2.203831 170.294006,2.440307 110.898468,3.133295 
	C92.248642,3.350889 75.870697,12.480376 67.593048,32.585918 
	C60.176586,50.599705 51.533665,68.105537 43.588974,85.905602 
	C33.268501,109.028595 23.133657,132.234375 12.855321,155.376282 
	C9.227531,163.544327 5.412573,171.629272 1.341535,179.876068 
	C1.000000,120.373505 1.000000,60.747005 1.000000,1.000000 
	C157.687546,1.000000 314.375122,1.000000 471.531342,1.000002 
z"/>
<path fill="#00A9C6" opacity="1.000000" stroke="none" 
	d="
M611.000000,553.550049 
	C607.683411,560.978088 604.196289,567.881165 601.086243,574.950134 
	C594.816772,589.200317 588.765747,603.546509 582.600281,617.842651 
	C573.030151,640.033325 563.667480,662.317688 553.758179,684.356140 
	C549.049927,694.827271 543.355957,704.861572 537.920715,714.993042 
	C537.058289,716.600525 535.200989,717.674255 533.138916,718.738281 
	C532.316101,716.679260 532.021667,714.876770 532.020203,713.074097 
	C531.992615,679.612732 532.020386,646.151245 531.955017,612.690002 
	C531.950562,610.423645 531.300842,608.158569 530.951294,605.892883 
	C534.796021,601.265503 538.574829,596.581360 542.497681,592.021118 
	C555.172119,577.287109 567.228760,562.042969 575.133606,544.174744 
	C578.473022,536.626343 583.536194,533.106750 591.187866,531.965088 
	C600.809937,530.529419 607.457520,534.882324 610.658020,544.868286 
	C611.000000,547.700012 611.000000,550.400024 611.000000,553.550049 
z"/>
<path fill="#009AAE" opacity="1.000000" stroke="none" 
	d="
M66.119987,684.036682 
	C71.798019,689.219910 76.856544,694.810669 78.326180,702.736633 
	C78.592613,704.173462 78.782043,705.624512 78.805840,707.773193 
	C73.067032,709.457458 71.359016,712.658752 71.869316,718.221558 
	C72.439087,724.432800 72.000000,730.736511 72.000000,737.000000 
	C60.979107,737.000000 49.958210,737.000000 38.468658,737.000000 
	C31.225723,733.683350 24.872681,730.200989 20.543613,723.350281 
	C13.924310,712.875305 15.158662,700.469788 21.928516,691.570496 
	C30.090063,680.841675 41.382339,678.202515 54.656700,679.262817 
	C58.892048,681.039368 62.506020,682.538025 66.119987,684.036682 
z"/>
<path fill="#009DB2" opacity="1.000000" stroke="none" 
	d="
M72.468658,737.000000 
	C72.000000,730.736511 72.439087,724.432800 71.869316,718.221558 
	C71.359016,712.658752 73.067032,709.457458 78.827454,708.185303 
	C80.798637,707.595154 82.546539,707.041016 84.295494,707.037659 
	C109.220444,706.989868 134.145538,707.016479 159.534973,707.553528 
	C159.998932,717.332397 159.998489,726.582947 159.998062,735.833435 
	C143.463684,735.962952 126.929314,736.092468 110.197472,736.610962 
	C97.645775,737.000000 85.291542,737.000000 72.468658,737.000000 
z"/>
<path fill="#00A0AD" opacity="1.000000" stroke="none" 
	d="
M66.423950,683.883057 
	C62.506020,682.538025 58.892048,681.039368 55.115982,679.215576 
	C70.056931,659.668152 85.204674,640.480896 100.250847,621.214294 
	C116.491745,600.417908 132.633621,579.544250 148.838486,558.719666 
	C149.545853,557.810669 150.450836,557.055420 151.572418,556.095947 
	C154.573624,558.446045 157.266174,560.928833 159.998337,563.764282 
	C145.029282,583.244873 129.978455,602.339905 115.024956,621.510864 
	C102.487778,637.584045 90.070580,653.750793 77.586456,669.865417 
	C73.991524,674.505737 70.348755,679.109131 66.423950,683.883057 
z"/>
<path fill="#00A7C3" opacity="1.000000" stroke="none" 
	d="
M530.643799,606.030334 
	C531.300842,608.158569 531.950562,610.423645 531.955017,612.690002 
	C532.020386,646.151245 531.992615,679.612732 532.020203,713.074097 
	C532.021667,714.876770 532.316101,716.679260 532.788452,718.767212 
	C526.833435,725.828796 518.646240,729.409058 509.864960,729.805542 
	C489.243408,730.736694 468.575897,730.650879 447.463501,730.447388 
	C446.999908,713.667664 446.999847,697.417175 446.999786,681.166687 
	C478.059296,659.812439 503.924744,632.686768 530.643799,606.030334 
z"/>
<path fill="#00A4BF" opacity="1.000000" stroke="none" 
	d="
M446.651733,681.201660 
	C446.999847,697.417175 446.999908,713.667664 446.999695,730.375793 
	C417.636597,731.547852 388.273804,732.262268 358.455505,732.447510 
	C357.999756,723.000977 357.999481,714.083740 357.999237,705.166504 
	C362.622894,704.444397 367.232391,703.611145 371.872620,703.018921 
	C395.405487,700.015198 418.615112,695.806946 440.064667,684.967529 
	C442.221893,683.877380 444.227661,682.487488 446.651733,681.201660 
z"/>
<path fill="#00A2BA" opacity="1.000000" stroke="none" 
	d="
M357.535309,705.095947 
	C357.999481,714.083740 357.999756,723.000977 357.999634,732.375854 
	C357.670166,732.880981 357.341461,732.966858 357.011932,732.970337 
	C324.316864,733.310059 291.621765,733.643494 258.463287,733.447754 
	C257.999664,724.000916 257.999390,715.083740 257.999115,706.166504 
	C291.023193,705.786194 324.047302,705.405823 357.535309,705.095947 
z"/>
<path fill="#009FB6" opacity="1.000000" stroke="none" 
	d="
M257.535187,706.096008 
	C257.999390,715.083740 257.999664,724.000916 257.999512,733.375793 
	C225.640167,734.548157 193.281204,735.262817 160.460159,735.905457 
	C159.998489,726.582947 159.998932,717.332397 159.998734,707.624268 
	C192.355820,706.786194 224.713531,706.405823 257.535187,706.096008 
z"/>
<path fill="#FFFFFF" opacity="1.000000" stroke="none" 
	d="
M521.171509,419.030457 
	C519.103088,434.726074 514.611938,449.764771 509.127045,464.571747 
	C502.290680,483.027100 492.627655,499.940857 480.728271,515.470642 
	C465.213165,535.719360 446.788055,553.108948 424.472748,565.624756 
	C410.660034,573.371765 396.236359,580.366516 381.407715,585.868225 
	C367.177643,591.147705 352.295166,595.062622 336.906036,596.016907 
	C326.888428,596.638062 316.806488,598.393066 306.877289,597.744202 
	C293.112732,596.844604 279.464539,594.164673 265.379089,591.710754 
	C263.156006,587.101501 261.332642,583.022827 259.479248,578.957947 
	C258.613129,577.058411 257.510040,575.246094 256.843933,573.282410 
	C256.234619,571.486145 255.763641,569.537170 255.776810,567.659302 
	C255.799042,564.487244 257.228424,561.022278 253.077789,559.257446 
	C253.983383,557.475037 254.505188,554.654236 255.759338,554.278564 
	C262.543274,552.246704 259.537811,547.487671 259.275146,543.689026 
	C260.914612,541.961487 263.370941,540.562256 263.793091,538.701599 
	C264.977631,533.480225 265.610107,528.085327 265.922638,522.727478 
	C266.263977,516.875671 267.758148,513.552795 273.485291,512.429138 
	C278.444702,511.456146 278.512329,508.393311 279.035065,504.791687 
	C280.410034,495.318756 279.299805,485.448029 283.696381,476.423340 
	C284.276367,475.232910 283.995209,472.730927 283.110077,471.882172 
	C280.183014,469.075439 277.140533,465.923981 273.513977,464.409851 
	C266.241730,461.373596 258.553986,459.332550 250.899109,456.566681 
	C246.697754,448.479736 240.830353,443.373169 231.973709,441.125610 
	C228.868286,440.337616 226.659042,436.099731 223.981567,433.497894 
	C223.082291,432.624054 222.000137,431.938385 220.617706,431.228516 
	C214.919693,433.505127 210.088959,434.072205 204.821167,430.190521 
	C201.540726,427.773254 196.700531,426.002289 193.367447,431.166443 
	C190.849991,435.066925 187.013916,435.281982 182.567444,435.095276 
	C173.392090,434.955963 173.392090,434.955963 171.576767,420.432526 
	C167.836838,419.762817 164.080414,419.090149 160.293411,418.411987 
	C161.436356,414.980682 162.551590,412.151825 163.268463,409.225372 
	C163.556061,408.051270 163.298203,405.767181 162.712296,405.551117 
	C161.332016,405.042114 159.448151,405.081818 158.064682,405.637756 
	C156.788483,406.150604 155.492996,407.440552 154.914093,408.710876 
	C153.078659,412.738647 150.007584,413.642242 145.881744,412.576416 
	C145.140411,411.991119 144.465546,411.824524 143.992279,411.421265 
	C137.995453,406.312225 138.560501,391.777039 145.408356,384.746857 
	C146.413727,384.444122 147.001709,384.068604 147.607956,384.036346 
	C152.800400,383.760071 158.152481,385.035309 162.876266,381.171509 
	C163.878647,380.351562 166.934113,381.573181 168.788849,382.415405 
	C170.213745,383.062408 171.238281,384.591125 172.324036,386.085358 
	C174.377945,389.719757 175.033463,394.287537 180.992401,395.955933 
	C180.072083,391.802216 179.553238,388.409027 178.545364,385.167938 
	C177.170883,380.747864 177.463837,377.450653 181.795639,374.466492 
	C187.066223,370.835602 191.821869,366.859985 193.493790,359.634796 
	C194.645523,354.657532 198.130966,349.757690 204.408539,348.056610 
	C206.014404,346.006866 207.036377,343.824799 208.563461,342.086456 
	C209.709152,340.782349 211.983749,338.873505 212.929871,339.259308 
	C217.720810,341.212891 221.921432,339.472900 226.123001,337.859161 
	C227.607651,337.288940 229.717300,335.716431 229.728149,334.584167 
	C229.742706,333.065948 228.055435,331.488129 226.989151,330.015289 
	C225.950195,328.580170 224.555908,327.363678 223.719223,325.831848 
	C222.921509,324.371338 222.641937,322.627808 222.502289,322.182159 
	C227.214905,321.184998 232.571365,320.051605 238.112473,319.111389 
	C238.435028,319.417297 238.572937,319.530029 238.487091,319.901276 
	C236.534821,322.626556 234.806320,325.093353 232.860764,327.869873 
	C235.259628,329.057251 237.608032,329.695618 239.231674,331.145538 
	C241.696884,333.347015 244.576508,333.745758 245.864777,331.195892 
	C246.932358,329.082855 246.071426,325.799500 245.550079,323.135345 
	C245.038239,320.519806 243.163437,318.036621 243.144333,315.485962 
	C243.099487,309.492310 243.086777,303.744263 239.025223,298.704742 
	C238.052979,297.498413 238.104752,295.309204 238.042542,293.559357 
	C237.906799,289.742981 238.000595,285.918457 238.000595,281.493469 
	C234.020981,284.126282 233.440765,289.570374 227.820480,288.647339 
	C228.200775,287.409515 228.397919,286.480988 228.763626,285.624390 
	C231.002609,280.380066 226.536819,273.554840 220.693268,272.941498 
	C217.596405,272.616486 216.259903,274.113464 215.120667,276.585175 
	C213.244293,280.656219 211.163727,284.633148 208.811813,289.369537 
	C211.096283,292.621185 210.973190,296.247070 205.678131,298.988098 
	C204.167694,299.769989 203.180298,301.562256 201.630951,303.064178 
	C199.933899,306.112976 198.558945,308.988739 197.183990,311.864532 
	C196.682938,311.752869 196.181870,311.641235 195.680801,311.529572 
	C197.399048,304.073425 195.196747,298.441345 189.332108,293.614716 
	C183.695648,288.975830 183.288757,284.629028 187.862106,278.881836 
	C191.679153,274.085083 196.579102,270.150085 201.337250,265.807068 
	C204.139374,263.800751 206.603729,261.820801 209.843582,259.217834 
	C208.656921,263.418793 207.782562,266.514191 206.807770,269.965149 
	C209.675064,269.567932 211.734848,269.251434 213.802765,269.002625 
	C218.123184,268.482788 218.923935,267.099579 217.044540,263.228058 
	C216.551865,262.213165 215.929932,261.261017 215.715515,260.887115 
	C218.387070,259.820618 222.036484,259.489655 223.422333,257.545319 
	C225.474472,254.666245 225.920502,250.642395 227.375366,246.925995 
	C228.952576,244.837082 230.204742,242.928131 231.456909,241.019165 
	C233.141907,242.683395 235.414459,244.060623 236.395370,246.068771 
	C238.784836,250.960556 233.178116,260.756683 227.799667,260.866241 
	C223.192688,260.960144 222.300400,262.814362 223.782898,266.208893 
	C226.824051,268.313080 229.852737,270.495331 231.950348,273.359467 
	C234.666641,277.068298 237.879593,278.168732 240.765396,274.856232 
	C243.047699,272.236481 243.799454,268.283356 245.205338,264.982330 
	C249.165573,267.069183 252.816330,265.159698 252.894424,259.731110 
	C252.927994,257.398010 251.627167,255.075104 251.323502,252.697632 
	C251.113617,251.054550 251.647156,249.329010 251.717880,247.634872 
	C251.841354,244.677109 252.985443,241.038269 251.693054,238.897644 
	C249.102417,234.606705 247.732086,230.456223 247.830460,225.475754 
	C247.859222,224.019485 246.046600,221.438004 244.788879,221.243683 
	C240.550522,220.588913 236.405548,217.891296 232.036499,219.696716 
	C232.416122,218.930695 232.987930,218.291748 232.874863,218.129211 
	C229.875870,213.817978 221.724152,213.983994 218.869415,218.445404 
	C216.156647,222.684967 213.672989,227.072525 210.915634,231.281693 
	C208.661041,234.723373 206.571625,238.521805 202.013947,238.388824 
	C206.173599,229.491364 209.985199,220.946548 214.260712,211.361694 
	C209.454117,213.844742 205.544235,215.864563 201.049759,218.186371 
	C201.809860,214.446411 202.460007,211.247528 203.110138,208.048645 
	C204.507599,207.104279 205.905075,206.159912 207.662491,205.552429 
	C211.939590,209.856094 222.416199,208.146790 225.422028,203.079376 
	C227.819321,206.727646 229.835648,210.409180 232.326859,214.957748 
	C234.434113,208.841309 236.031921,204.203537 237.614532,199.609924 
	C233.501068,196.483673 229.277740,198.526962 225.162903,199.544739 
	C225.556580,197.819031 225.828094,196.435760 226.099609,195.052505 
	C230.805573,192.795456 235.511536,190.538391 240.589645,188.565369 
	C240.532501,191.334641 240.103210,193.819901 239.642502,196.487030 
	C243.088684,196.324921 245.994797,196.188202 248.900909,196.051483 
	C250.142456,196.527115 251.384003,197.002747 253.725388,197.899704 
	C250.294220,199.895554 247.265900,201.657074 244.237579,203.418594 
	C244.775314,204.136490 245.313049,204.854401 245.850769,205.572296 
	C247.132629,206.467438 248.414505,207.362579 249.402313,208.621613 
	C243.872253,210.536743 245.520065,205.013412 243.486435,203.359100 
	C236.617081,205.553619 234.156418,210.957626 237.656540,215.263611 
	C240.780029,219.106232 244.785355,218.370895 248.494965,217.641449 
	C252.416397,216.870361 251.990250,213.129211 252.106613,210.055222 
	C255.434723,212.427933 257.734161,211.990051 260.323700,208.417007 
	C263.089813,204.600281 266.933990,201.564865 270.806763,198.244171 
	C271.433929,198.425446 271.561920,198.550949 271.460083,198.968719 
	C270.575500,201.250168 269.909851,203.235886 269.268646,205.229446 
	C268.286438,208.283249 267.321045,211.342468 266.265442,214.660568 
	C276.753082,215.416183 277.697784,216.328171 276.918915,225.321518 
	C276.644104,228.494507 275.610443,231.638245 274.641235,234.706253 
	C273.103210,239.574997 269.951202,244.287888 274.394379,249.422745 
	C263.329376,257.097443 265.191833,267.763855 267.093323,278.232758 
	C267.615509,281.107635 269.390747,283.855377 270.999451,286.403595 
	C272.545380,288.852417 274.783112,288.532074 276.168701,286.229584 
	C278.326233,282.644318 280.104218,278.830658 282.358154,274.971252 
	C284.484406,272.901123 286.295563,270.973572 288.416138,268.912476 
	C290.519867,267.534637 292.314209,266.290344 294.421204,264.912170 
	C296.524017,263.535370 298.314178,262.292450 300.472229,261.018616 
	C302.225922,260.602844 303.611725,260.217957 305.360962,259.897522 
	C307.925903,258.940643 310.127411,257.919312 312.705475,256.904114 
	C315.620911,254.546280 318.570312,252.476959 320.553284,249.714035 
	C321.858276,247.895691 322.791626,244.712173 322.100433,242.780945 
	C320.504272,238.321198 319.919922,234.867310 324.953522,232.425964 
	C325.846985,231.992630 326.621460,230.754379 326.911285,229.734467 
	C328.062408,225.683167 329.001770,221.571625 330.015747,217.481461 
	C332.074646,209.176620 333.674866,200.731918 340.610413,194.578690 
	C342.100189,193.257004 342.446411,190.646423 343.506439,188.197540 
	C339.952545,188.025757 337.547943,187.909515 334.172333,187.746338 
	C337.416473,183.637787 337.637604,180.155869 334.093353,177.074783 
	C345.730133,179.216690 357.544830,180.674973 368.965363,183.647675 
	C390.465576,189.244034 410.132843,199.166672 428.494080,211.787201 
	C424.911499,219.180954 427.177673,226.389099 426.923645,233.455948 
	C426.797974,236.952255 428.536438,238.869568 431.365753,239.608185 
	C434.471741,240.419022 437.779510,240.456924 441.369110,240.910278 
	C444.966949,243.739624 444.966949,243.739624 439.598083,246.099152 
	C436.476044,247.179626 433.592407,248.058929 431.089111,249.568893 
	C429.253174,250.676331 428.065125,252.071655 426.481903,249.336624 
	C426.042603,248.577698 424.588898,248.405960 422.459656,247.455597 
	C422.618439,250.340149 422.843079,252.411346 422.802429,254.477310 
	C422.779968,255.619217 422.313019,256.752411 421.904419,257.576904 
	C418.833069,252.743134 416.181000,247.899094 409.608948,247.096420 
	C406.514679,246.001953 403.811279,244.976578 401.044952,243.558807 
	C396.724884,239.349594 392.353149,240.730377 387.611877,242.938873 
	C379.128510,247.166870 374.975525,253.801102 374.570007,263.133820 
	C372.578033,269.073242 369.862488,273.980652 364.458130,277.250000 
	C360.214813,279.816986 359.528717,287.043274 363.090302,292.096649 
	C366.323883,296.684540 369.510071,292.828766 372.509674,291.458771 
	C373.331879,292.696930 374.112885,293.873077 374.939331,295.454376 
	C375.453613,297.534424 375.922485,299.209290 376.546997,301.440002 
	C378.528229,300.877655 381.321259,300.876007 381.820190,299.805328 
	C383.900818,295.340454 387.722839,289.676727 386.421692,286.070831 
	C383.828003,278.882690 386.548492,273.768005 389.427429,267.874847 
	C390.510468,266.739777 391.276276,265.774994 392.042114,264.810242 
	C392.489990,265.062622 392.937836,265.315002 393.385712,265.567383 
	C392.682220,267.837128 392.023132,270.121796 391.267181,272.373932 
	C388.628113,280.236816 390.511902,283.045990 399.392029,283.907043 
	C401.570557,284.542114 403.355743,285.104462 405.140900,285.666779 
	C405.036133,286.024384 404.931366,286.381958 404.826599,286.739563 
	C403.216949,286.881989 401.607300,287.024445 399.622406,287.228638 
	C398.565552,287.692993 397.262085,288.163910 397.297699,288.487579 
	C397.693115,292.083923 396.025940,294.283905 393.092377,296.104065 
	C392.301239,296.594910 392.457581,298.474274 391.967377,299.626251 
	C391.441559,300.861877 390.666382,301.991364 389.622925,303.226685 
	C385.162689,304.246033 381.079559,305.205841 376.604797,306.095642 
	C370.676697,305.334656 373.354248,299.683594 370.316620,295.969513 
	C370.068268,305.135498 365.297150,310.361237 358.993835,314.634521 
	C358.043701,315.278625 357.682220,316.767242 356.998627,317.833282 
	C355.671509,319.902893 354.706726,322.466461 352.866516,323.883301 
	C350.204529,325.932831 346.898010,327.145172 343.755615,328.772125 
	C344.319916,329.558685 344.518768,330.082581 344.897644,330.324280 
	C347.535706,332.007080 351.250305,333.716309 349.698761,337.244690 
	C348.858185,339.156219 345.186188,340.322815 342.590546,340.866699 
	C335.427246,342.367676 334.108490,343.099426 333.149048,350.174255 
	C332.640961,353.920868 332.063904,358.052032 336.753052,360.477661 
	C339.791992,362.049652 339.785248,365.031677 338.032898,367.749054 
	C333.710114,374.452332 330.098938,381.504456 324.477844,387.512024 
	C320.739624,391.507385 318.345978,397.558136 317.308105,403.058289 
	C316.270569,408.556580 317.618469,414.518219 318.032776,420.268646 
	C318.147461,421.860138 318.153595,423.867737 319.078339,424.923401 
	C323.614624,430.102203 328.172241,435.320557 333.236053,439.964813 
	C340.128845,446.286499 349.037292,442.921417 355.818512,441.232971 
	C361.910858,439.716034 366.134216,441.039856 371.126892,442.573700 
	C371.720917,442.756195 372.372528,442.751221 373.394379,442.916229 
	C377.651825,444.503662 376.410400,448.064941 375.723267,450.207214 
	C373.835632,456.092346 376.200043,460.202820 379.982727,464.469727 
	C385.359009,471.230316 386.631165,478.167084 383.021637,485.907928 
	C382.298859,487.457855 382.216949,489.343323 382.017609,491.094330 
	C381.157959,498.646851 384.810852,505.168762 386.938293,512.442993 
	C389.286987,519.574402 391.590027,526.311890 394.071777,533.402100 
	C396.833313,534.114319 399.416138,534.473816 402.359924,534.786743 
	C404.826477,533.867065 406.932037,532.993835 409.393188,532.063538 
	C413.205322,528.350220 416.661926,524.693970 420.434357,520.894653 
	C422.517090,517.536072 424.283966,514.320618 426.375977,510.951660 
	C427.783783,508.210663 429.128113,505.694366 429.859039,503.010986 
	C430.362488,501.162628 430.016174,499.082794 430.357208,496.967987 
	C432.307129,495.194183 433.748169,493.264038 435.629761,491.979095 
	C441.136719,488.218475 442.583069,483.020813 442.056549,476.710052 
	C441.639313,471.709045 441.732605,466.665405 441.782410,461.307190 
	C445.680603,456.664337 449.395569,452.355011 453.413147,447.886566 
	C455.423920,445.368866 457.327972,443.125671 458.799591,440.627747 
	C461.888245,435.385040 464.818390,430.044220 467.622131,424.644257 
	C467.996674,423.922882 467.487091,422.464966 466.930725,421.665649 
	C466.685913,421.313873 465.290192,421.710480 464.430084,421.848694 
	C460.298553,422.512695 456.171478,423.204498 451.905762,423.573761 
	C449.352539,419.110168 454.547180,420.967896 455.421143,419.065735 
	C460.882965,416.380188 465.965576,413.744019 471.403992,411.054779 
	C475.903381,407.426361 480.462891,404.218018 484.050751,400.152252 
	C486.627716,397.232025 486.573608,393.942871 483.151886,390.285858 
	C479.045502,385.897095 475.096405,385.216522 469.644592,387.087708 
	C467.382324,384.894226 465.475616,382.779816 462.746735,379.753632 
	C466.421387,380.679626 468.710663,381.256500 471.419250,381.903015 
	C475.892456,382.592865 479.946320,383.213074 484.374451,383.903687 
	C488.820099,384.356293 492.891510,384.738495 497.124329,385.424194 
	C501.178223,389.192017 505.070770,392.656372 509.137634,396.431458 
	C511.218872,398.450958 513.910461,399.803467 514.879639,401.938049 
	C517.382751,407.451263 519.125244,413.309814 521.171509,419.030457 
M180.312805,401.809845 
	C174.679489,398.820923 172.181900,399.206757 168.871078,403.209961 
	C172.465988,404.381897 176.232819,405.609863 180.675201,407.171112 
	C183.955063,411.982178 188.897171,409.287659 192.822617,410.611450 
	C191.955536,411.612183 191.088440,412.612915 190.221344,413.613678 
	C191.376038,414.074768 192.535355,414.937347 193.684570,414.924072 
	C197.633591,414.878418 201.579071,414.526306 206.390900,414.239410 
	C202.203308,409.056854 198.028641,408.021515 192.388458,409.530121 
	C191.762085,408.641083 191.330215,407.404755 190.474350,406.925476 
	C187.392380,405.199493 184.167404,403.728790 180.312805,401.809845 
M342.622498,304.142059 
	C343.829102,305.420380 345.035736,306.698700 346.242340,307.976990 
	C345.790436,308.006653 345.338562,308.036285 344.886658,308.065948 
	C343.677490,313.546234 342.468353,319.026520 341.259186,324.506805 
	C341.790222,324.731110 342.321289,324.955383 342.852356,325.179688 
	C347.163025,322.532898 351.473663,319.886139 356.654022,316.705383 
	C355.675171,313.988831 354.932251,310.845276 353.455719,308.095734 
	C351.487396,304.430450 348.437378,301.378571 348.826538,296.637817 
	C348.917511,295.529297 347.217743,293.697266 345.967468,293.253906 
	C345.105865,292.948364 342.719666,294.290619 342.543732,295.194153 
	C341.988037,298.048126 342.152130,301.042267 341.418701,304.622925 
	C338.845306,305.675140 335.152679,306.025574 333.952881,307.939056 
	C332.004669,311.046021 331.658203,315.183014 335.820099,318.067993 
	C342.627167,315.409210 341.421967,309.265228 342.622498,304.142059 
M447.060608,496.660614 
	C446.054077,498.700256 445.022736,500.728119 444.046570,502.782227 
	C442.412415,506.220947 443.739258,509.477631 447.550995,510.751526 
	C450.748779,511.820251 452.881104,510.515564 453.951569,507.252930 
	C456.366974,499.890869 458.962158,492.586975 461.306793,485.203094 
	C461.900726,483.332672 461.828613,481.250763 462.062561,479.266022 
	C461.689178,479.140442 461.315796,479.014862 460.942383,478.889252 
	C456.451477,484.602844 451.960541,490.316437 447.060608,496.660614 
M382.623138,208.134491 
	C378.301544,203.009079 384.469666,201.284378 385.973022,198.113541 
	C382.468903,193.763672 378.239410,193.683075 374.668304,197.674927 
	C373.716217,198.739197 372.465088,199.612030 371.206451,200.312531 
	C366.316437,203.034042 365.863098,204.444321 368.818695,209.252243 
	C370.255371,211.589264 371.900879,213.797882 373.451843,216.064621 
	C374.087189,216.574265 374.722534,217.083923 375.357880,217.593582 
	C376.116943,216.002411 376.514160,213.983582 377.741150,212.945526 
	C378.872253,211.988602 380.984589,212.282166 382.471710,211.602615 
	C382.945374,211.386185 382.800781,209.816742 382.623138,208.134491 
M330.622955,269.861176 
	C332.085571,265.307648 329.809631,263.911072 325.709076,263.996429 
	C323.559143,264.041168 321.185394,264.595520 319.297699,263.889832 
	C313.371613,261.674469 313.268616,264.608246 313.949005,269.082642 
	C314.475006,272.541901 315.236053,275.571045 319.377106,275.978912 
	C326.505005,276.681030 328.457306,275.644379 330.622955,269.861176 
z"/>
<path fill="#FFFFFF" opacity="1.000000" stroke="none" 
	d="
M251.947968,587.897461 
	C244.505463,585.232361 236.846222,583.049133 229.658920,579.816650 
	C202.253281,567.490723 179.366959,548.940613 159.410553,526.790344 
	C138.536713,503.621796 122.996567,477.171326 114.693771,447.000702 
	C111.126778,434.039001 109.423683,420.556824 107.046127,407.280212 
	C106.383560,403.580322 106.336380,399.770172 106.361176,395.651184 
	C108.360039,397.686676 110.004639,400.081604 111.649231,402.476532 
	C112.212608,402.174469 112.775986,401.872406 113.339371,401.570343 
	C111.866661,396.936218 110.393951,392.302094 108.921234,387.667969 
	C109.456734,387.462952 109.992233,387.257935 110.527725,387.052917 
	C114.040253,394.121338 117.505096,401.214081 121.095619,408.242676 
	C122.115585,410.239288 123.067955,412.958160 124.796814,413.782745 
	C131.353760,416.910126 138.216446,419.396484 145.162354,422.452087 
	C154.705811,424.014862 162.008469,428.657196 168.262573,435.625641 
	C173.201218,441.128479 179.216949,442.575684 183.103119,440.435577 
	C187.871506,445.595795 188.134842,448.200775 185.298981,454.407990 
	C184.178024,456.861572 183.256271,459.610596 183.134445,462.265991 
	C182.971008,465.828125 183.658463,469.431183 184.009644,473.013824 
	C184.103714,473.973480 183.964966,475.227295 184.507019,475.829498 
	C189.746368,481.650116 194.758972,487.743347 200.525360,493.003387 
	C207.423386,499.295776 217.251175,502.648865 219.939453,513.441895 
	C223.028091,523.054626 226.142136,532.250366 229.074432,541.503662 
	C230.235794,545.168579 230.051437,549.634827 232.136856,552.551392 
	C236.093002,558.084473 234.852936,566.313232 241.637482,570.163696 
	C241.902878,576.537659 246.707870,580.386230 250.052872,585.380188 
	C250.753769,586.402893 251.350876,587.150208 251.947968,587.897461 
z"/>
<path fill="#0090CC" opacity="1.000000" stroke="none" 
	d="
M144.964798,422.122559 
	C138.216446,419.396484 131.353760,416.910126 124.796814,413.782745 
	C123.067955,412.958160 122.115585,410.239288 121.095619,408.242676 
	C117.505096,401.214081 114.040253,394.121338 110.527725,387.052917 
	C109.992233,387.257935 109.456734,387.462952 108.921234,387.667969 
	C110.393951,392.302094 111.866661,396.936218 113.339371,401.570343 
	C112.775986,401.872406 112.212608,402.174469 111.649231,402.476532 
	C110.004639,400.081604 108.360039,397.686676 106.382065,395.200867 
	C104.703918,390.699188 103.144859,386.340546 102.055954,381.867462 
	C99.183723,370.068665 102.173035,358.486481 104.302475,347.057556 
	C107.985374,327.291046 114.474266,308.299042 123.916328,290.524536 
	C128.865509,281.207794 135.068222,272.556976 141.260391,263.311462 
	C146.033859,263.382477 144.964020,266.638733 144.966980,269.083282 
	C145.013794,307.666534 144.999603,346.249878 144.999405,384.833191 
	C138.560501,391.777039 137.995453,406.312225 143.992279,411.421265 
	C144.465546,411.824524 145.140411,411.991119 145.825104,412.987701 
	C145.607330,416.512665 145.286057,419.317627 144.964798,422.122559 
z"/>
<path fill="#0094C0" opacity="1.000000" stroke="none" 
	d="
M204.041595,348.114868 
	C198.130966,349.757690 194.645523,354.657532 193.493790,359.634796 
	C191.821869,366.859985 187.066223,370.835602 181.795639,374.466492 
	C177.463837,377.450653 177.170883,380.747864 178.545364,385.167938 
	C179.553238,388.409027 180.072083,391.802216 180.992401,395.955933 
	C175.033463,394.287537 174.377945,389.719757 172.510071,385.585785 
	C172.863739,384.231689 172.958847,383.734802 172.959030,383.237854 
	C172.977203,334.411163 173.022385,285.584381 172.872696,236.758179 
	C172.866806,234.833725 170.997711,232.914963 169.996765,230.993530 
	C171.745941,230.224564 173.495117,229.455597 175.616272,229.211151 
	C177.257629,231.298843 178.526993,232.862015 179.651947,234.247360 
	C181.396332,231.140060 182.877121,228.874084 183.972473,226.435013 
	C184.871338,224.433517 185.311844,222.226196 185.955505,220.110092 
	C189.616547,213.653580 195.171021,209.760086 202.714066,208.035431 
	C202.460007,211.247528 201.809860,214.446411 201.049759,218.186371 
	C205.544235,215.864563 209.454117,213.844742 214.260712,211.361694 
	C209.985199,220.946548 206.173599,229.491364 201.989990,238.472137 
	C201.417389,239.093307 201.212402,239.273438 200.638763,239.681412 
	C198.797989,239.940781 197.302658,239.832062 195.850494,240.033981 
	C194.557449,240.213745 193.312225,240.737366 192.045883,241.109238 
	C193.146591,242.319550 194.090866,244.259384 195.391312,244.538300 
	C196.734665,244.826385 198.424210,243.500107 200.020203,243.302872 
	C200.385223,251.094925 200.692352,258.464172 200.999481,265.833435 
	C196.579102,270.150085 191.679153,274.085083 187.862106,278.881836 
	C183.288757,284.629028 183.695648,288.975830 189.332108,293.614716 
	C195.196747,298.441345 197.399048,304.073425 195.680801,311.529572 
	C196.181870,311.641235 196.682938,311.752869 197.183990,311.864532 
	C198.558945,308.988739 199.933899,306.112976 201.798981,303.455658 
	C202.526062,305.619171 202.915451,307.559509 202.975327,309.509979 
	C203.370300,322.377075 203.694397,335.246307 204.041595,348.114868 
z"/>
<path fill="#0092C5" opacity="1.000000" stroke="none" 
	d="
M169.698059,231.139816 
	C170.997711,232.914963 172.866806,234.833725 172.872696,236.758179 
	C173.022385,285.584381 172.977203,334.411163 172.959030,383.237854 
	C172.958847,383.734802 172.863739,384.231689 172.626907,385.228180 
	C171.238281,384.591125 170.213745,383.062408 168.788849,382.415405 
	C166.934113,381.573181 163.878647,380.351562 162.876266,381.171509 
	C158.152481,385.035309 152.800400,383.760071 147.607956,384.036346 
	C147.001709,384.068604 146.413727,384.444122 145.408356,384.746857 
	C144.999603,346.249878 145.013794,307.666534 144.966980,269.083282 
	C144.964020,266.638733 146.033859,263.382477 141.410156,263.009399 
	C150.469376,252.429504 159.934357,241.857803 169.698059,231.139816 
z"/>
<path fill="#00C3D5" opacity="1.000000" stroke="none" 
	d="
M439.999573,246.168365 
	C444.966949,243.739624 444.966949,243.739624 441.369354,240.521698 
	C440.999695,238.759109 440.999542,237.463760 441.375458,236.228180 
	C445.381683,237.264114 449.011841,238.240280 452.644104,239.217026 
	C451.280029,234.408997 450.101288,230.254303 448.922546,226.099609 
	C451.533112,228.188492 454.143616,230.277374 456.600372,232.953796 
	C455.964386,252.259735 455.166809,270.976410 455.065308,289.696899 
	C454.850800,329.265442 454.998932,368.835968 455.001801,408.405701 
	C455.002075,411.975494 455.027924,415.545288 455.041931,419.115082 
	C454.547180,420.967896 449.352539,419.110168 451.893127,424.049835 
	C452.012115,429.259247 451.865814,433.685699 452.047302,438.098694 
	C452.184021,441.423309 452.740784,444.730652 453.110565,448.045685 
	C449.395569,452.355011 445.680603,456.664337 441.620941,460.746277 
	C440.850891,458.431732 440.030365,456.336365 440.073120,454.258820 
	C440.209564,447.631104 440.818359,441.013306 440.961395,434.385559 
	C441.137573,426.222626 441.028900,418.053589 441.361084,410.036011 
	C443.182739,411.766235 444.686646,413.347595 446.190552,414.928955 
	C446.738739,414.558685 447.286957,414.188416 447.835144,413.818146 
	C444.183990,406.557465 440.532837,399.296753 437.196747,391.761536 
	C438.007874,385.906494 438.892059,380.328796 438.932037,374.745026 
	C439.095123,351.963531 438.870911,329.179260 439.038788,306.397827 
	C439.186737,286.320099 439.666412,266.244751 439.999573,246.168365 
z"/>
<path fill="#00C9CB" opacity="1.000000" stroke="none" 
	d="
M455.421112,419.065735 
	C455.027924,415.545288 455.002075,411.975494 455.001801,408.405701 
	C454.998932,368.835968 454.850800,329.265442 455.065308,289.696899 
	C455.166809,270.976410 455.964386,252.259735 456.756958,233.249420 
	C462.604218,238.438278 468.141144,243.919037 473.422852,249.796219 
	C472.778503,251.532913 472.067078,252.868546 472.047699,254.214127 
	C471.651062,281.782654 471.273102,309.351776 471.024109,336.921967 
	C470.888947,351.891296 470.999969,366.862854 470.999939,381.833374 
	C468.710663,381.256500 466.421387,380.679626 462.746735,379.753632 
	C465.475616,382.779816 467.382324,384.894226 469.644531,387.545227 
	C470.349396,395.757141 470.698792,403.432495 471.048187,411.107849 
	C465.965576,413.744019 460.882965,416.380188 455.421112,419.065735 
M460.309113,377.634125 
	C460.771881,377.774994 461.234680,377.915863 461.697449,378.056732 
	C461.395538,377.743835 461.093597,377.430908 460.309113,377.634125 
z"/>
<path fill="#0099B1" opacity="1.000000" stroke="none" 
	d="
M252.141663,588.186829 
	C251.350876,587.150208 250.753769,586.402893 250.222443,584.989502 
	C250.525482,582.205872 250.966965,580.088562 250.969772,577.970764 
	C251.023300,537.607483 251.025177,497.244110 251.037766,456.880737 
	C258.553986,459.332550 266.241730,461.373596 273.513977,464.409851 
	C277.140533,465.923981 280.183014,469.075439 283.110077,471.882172 
	C283.995209,472.730927 284.276367,475.232910 283.696381,476.423340 
	C279.299805,485.448029 280.410034,495.318756 279.035065,504.791687 
	C278.512329,508.393311 278.444702,511.456146 273.485291,512.429138 
	C267.758148,513.552795 266.263977,516.875671 265.922638,522.727478 
	C265.610107,528.085327 264.977631,533.480225 263.793091,538.701599 
	C263.370941,540.562256 260.914612,541.961487 259.275146,543.689026 
	C259.537811,547.487671 262.543274,552.246704 255.759338,554.278564 
	C254.505188,554.654236 253.983383,557.475037 253.077789,559.257446 
	C257.228424,561.022278 255.799042,564.487244 255.776810,567.659302 
	C255.763641,569.537170 256.234619,571.486145 256.843933,573.282410 
	C257.510040,575.246094 258.613129,577.058411 259.479248,578.957947 
	C261.332642,583.022827 263.156006,587.101501 265.020691,591.534424 
	C259.673950,594.986450 256.163513,591.140320 252.141663,588.186829 
z"/>
<path fill="#00CEC3" opacity="1.000000" stroke="none" 
	d="
M471.419250,381.903046 
	C470.999969,366.862854 470.888947,351.891296 471.024109,336.921967 
	C471.273102,309.351776 471.651062,281.782654 472.047699,254.214127 
	C472.067078,252.868546 472.778503,251.532913 473.558044,250.099182 
	C478.280731,255.764297 482.613098,261.522888 486.696259,267.889709 
	C485.964722,272.245636 485.105469,275.988678 485.058685,279.741821 
	C484.625916,314.437958 484.333435,349.135864 484.000183,383.833252 
	C479.946320,383.213074 475.892456,382.592865 471.419250,381.903046 
z"/>
<path fill="#00BDDB" opacity="1.000000" stroke="none" 
	d="
M333.681335,177.007217 
	C337.637604,180.155869 337.416473,183.637787 334.172333,187.746338 
	C337.547943,187.909515 339.952545,188.025757 343.506439,188.197540 
	C342.446411,190.646423 342.100189,193.257004 340.610413,194.578690 
	C333.674866,200.731918 332.074646,209.176620 330.015747,217.481461 
	C329.001770,221.571625 328.062408,225.683167 326.911285,229.734467 
	C326.621460,230.754379 325.846985,231.992630 324.953522,232.425964 
	C319.919922,234.867310 320.504272,238.321198 322.100433,242.780945 
	C322.791626,244.712173 321.858276,247.895691 320.553284,249.714035 
	C318.570312,252.476959 315.620911,254.546280 312.624451,256.374878 
	C312.110687,230.281891 312.054474,204.724274 312.306519,179.020203 
	C314.045044,177.940430 315.475311,177.007126 316.905548,176.073807 
	C322.360138,176.362411 327.814758,176.651031 333.681335,177.007217 
z"/>
<path fill="#00D2BC" opacity="1.000000" stroke="none" 
	d="
M484.374420,383.903687 
	C484.333435,349.135864 484.625916,314.437958 485.058685,279.741821 
	C485.105469,275.988678 485.964722,272.245636 486.738586,268.239258 
	C491.037415,274.359619 495.044739,280.738647 498.991425,287.914246 
	C498.620544,292.982544 498.097839,297.251190 498.034515,301.526611 
	C497.621735,329.390472 497.308624,357.255829 496.962921,385.120697 
	C492.891510,384.738495 488.820099,384.356293 484.374420,383.903687 
z"/>
<path fill="#00D7B4" opacity="1.000000" stroke="none" 
	d="
M497.124329,385.424194 
	C497.308624,357.255829 497.621735,329.390472 498.034515,301.526611 
	C498.097839,297.251190 498.620544,292.982544 499.002991,288.279907 
	C503.061188,296.275848 507.047241,304.702606 510.872955,313.904358 
	C510.475281,315.965454 510.052582,317.248169 510.028320,318.538330 
	C509.655029,338.420837 509.313568,358.303986 509.012115,378.187714 
	C508.921509,384.164246 508.975525,390.143005 508.963287,396.120728 
	C505.070770,392.656372 501.178223,389.192017 497.124329,385.424194 
z"/>
<path fill="#00DBAE" opacity="1.000000" stroke="none" 
	d="
M509.137634,396.431458 
	C508.975525,390.143005 508.921509,384.164246 509.012115,378.187714 
	C509.313568,358.303986 509.655029,338.420837 510.028320,318.538330 
	C510.052582,317.248169 510.475281,315.965454 510.890381,314.285767 
	C514.379456,324.931976 518.696533,335.790070 520.731140,347.060242 
	C522.954102,359.374359 523.393738,372.053833 523.999268,384.603577 
	C524.546204,395.939178 524.875671,407.357910 521.426453,418.756226 
	C519.125244,413.309814 517.382751,407.451263 514.879639,401.938049 
	C513.910461,399.803467 511.218872,398.450958 509.137634,396.431458 
z"/>
<path fill="#009EB3" opacity="1.000000" stroke="none" 
	d="
M288.106720,269.045990 
	C286.295563,270.973572 284.484406,272.901123 282.336731,274.540771 
	C281.666779,271.143158 281.055267,268.034393 281.044312,264.923553 
	C280.962372,241.671677 280.999237,218.419388 281.317078,195.013107 
	C284.403290,191.172729 284.423370,190.936066 282.037659,190.118393 
	C281.725067,187.184052 281.024872,184.224426 281.214172,181.322830 
	C281.386719,178.678284 282.970642,176.625214 286.602661,177.469879 
	C286.999573,206.430832 286.978271,234.923431 287.046356,263.415833 
	C287.050842,265.293396 287.737427,267.169312 288.106720,269.045990 
z"/>
<path fill="#00A3B9" opacity="1.000000" stroke="none" 
	d="
M288.416138,268.912476 
	C287.737427,267.169312 287.050842,265.293396 287.046356,263.415833 
	C286.978271,234.923431 286.999573,206.430832 287.000580,177.469742 
	C288.746552,176.672073 290.491852,176.342926 292.619507,176.478989 
	C293.001221,204.435242 292.978973,231.926361 293.047668,259.417236 
	C293.052368,261.294403 293.739014,263.169830 294.108551,265.046082 
	C292.314209,266.290344 290.519867,267.534637 288.416138,268.912476 
z"/>
<path fill="#00ABC3" opacity="1.000000" stroke="none" 
	d="
M294.421204,264.912170 
	C293.739014,263.169830 293.052368,261.294403 293.047668,259.417236 
	C292.978973,231.926361 293.001221,204.435242 293.004578,176.476532 
	C295.078522,176.012436 297.149750,176.016006 299.618164,176.423828 
	C300.044128,177.868057 300.072906,178.908051 299.787476,180.233490 
	C299.316528,181.323517 299.023651,182.127930 299.022827,182.932648 
	C298.997803,207.760513 298.985901,232.588455 299.047516,257.416168 
	C299.050507,258.628174 299.736420,259.838470 300.104309,261.049561 
	C298.314178,262.292450 296.524017,263.535370 294.421204,264.912170 
z"/>
<path fill="#FFFFFF" opacity="1.000000" stroke="none" 
	d="
M448.607330,225.952087 
	C450.101288,230.254303 451.280029,234.408997 452.644104,239.217026 
	C449.011841,238.240280 445.381683,237.264114 441.014587,236.151352 
	C438.172791,233.965195 435.586731,232.218582 434.065430,229.801758 
	C431.088379,225.072159 432.224945,219.992783 434.064941,215.074753 
	C438.807343,218.651352 443.549713,222.227951 448.607330,225.952087 
z"/>
<path fill="#00BBD8" opacity="1.000000" stroke="none" 
	d="
M434.004761,214.701630 
	C432.224945,219.992783 431.088379,225.072159 434.065430,229.801758 
	C435.586731,232.218582 438.172791,233.965195 440.638489,236.091568 
	C440.999542,237.463760 440.999695,238.759109 440.999603,240.443054 
	C437.779510,240.456924 434.471741,240.419022 431.365753,239.608185 
	C428.536438,238.869568 426.797974,236.952255 426.923645,233.455948 
	C427.177673,226.389099 424.911499,219.180954 428.614868,212.110168 
	C430.618073,212.717911 432.281311,213.523224 434.004761,214.701630 
z"/>
<path fill="#00B4AD" opacity="1.000000" stroke="none" 
	d="
M251.782913,210.016998 
	C251.990250,213.129211 252.416397,216.870361 248.494965,217.641449 
	C244.785355,218.370895 240.780029,219.106232 237.656540,215.263611 
	C234.156418,210.957626 236.617081,205.553619 243.486435,203.359100 
	C245.520065,205.013412 243.872253,210.536743 249.524445,208.942215 
	C250.446823,209.258865 250.953018,209.618805 251.782913,210.016998 
z"/>
<path fill="#0090CC" opacity="1.000000" stroke="none" 
	d="
M225.759338,195.170746 
	C225.828094,196.435760 225.556580,197.819031 225.150848,199.947876 
	C225.024780,201.499847 225.032928,202.306259 225.041077,203.112656 
	C222.416199,208.146790 211.939590,209.856094 207.980255,205.488800 
	C211.190720,202.805542 214.318436,200.308487 217.739197,198.314041 
	C220.088455,196.944321 222.844742,196.272690 225.759338,195.170746 
z"/>
<path fill="#00A7BE" opacity="1.000000" stroke="none" 
	d="
M249.183289,195.839844 
	C245.994797,196.188202 243.088684,196.324921 239.642502,196.487030 
	C240.103210,193.819901 240.532501,191.334641 240.928131,188.451126 
	C243.038849,187.376144 245.183243,186.699432 247.672546,186.407959 
	C248.692978,188.829895 249.368484,190.866562 250.044006,192.903229 
	C249.851242,193.811554 249.658463,194.719864 249.183289,195.839844 
z"/>
<path fill="#FFFFFF" opacity="1.000000" stroke="none" 
	d="
M185.627625,220.167908 
	C185.311844,222.226196 184.871338,224.433517 183.972473,226.435013 
	C182.877121,228.874084 181.396332,231.140060 179.651947,234.247360 
	C178.526993,232.862015 177.257629,231.298843 175.910599,229.365219 
	C178.988541,226.071747 182.144135,223.148743 185.627625,220.167908 
z"/>
<path fill="#FFFFFF" opacity="1.000000" stroke="none" 
	d="
M300.101654,179.948059 
	C300.072906,178.908051 300.044128,177.868057 300.062561,176.440521 
	C305.400726,176.038635 310.691681,176.024292 316.444092,176.041885 
	C315.475311,177.007126 314.045044,177.940430 311.924713,178.951447 
	C309.168854,179.645889 307.103119,180.262634 304.840881,180.555420 
	C303.130157,180.136993 301.615906,180.042526 300.101654,179.948059 
z"/>
<path fill="#FFFFFF" opacity="1.000000" stroke="none" 
	d="
M281.872620,190.429626 
	C284.423370,190.936066 284.403290,191.172729 280.948395,195.065186 
	C277.404297,196.406403 274.547119,197.541443 271.689941,198.676468 
	C271.561920,198.550949 271.433929,198.425446 271.113953,198.111694 
	C274.517120,195.529221 278.112305,193.135040 281.872620,190.429626 
z"/>
<path fill="#FFFFFF" opacity="1.000000" stroke="none" 
	d="
M250.385254,192.830139 
	C249.368484,190.866562 248.692978,188.829895 248.063934,186.422363 
	C250.159653,185.663910 252.208878,185.276291 255.205978,184.709396 
	C253.446899,187.869705 252.086716,190.313370 250.385254,192.830139 
z"/>
<path fill="#009AAD" opacity="1.000000" stroke="none" 
	d="
M372.997437,442.833160 
	C372.372528,442.751221 371.720917,442.756195 371.126892,442.573700 
	C366.134216,441.039856 361.910858,439.716034 355.818512,441.232971 
	C349.037292,442.921417 340.128845,446.286499 333.236053,439.964813 
	C328.172241,435.320557 323.614624,430.102203 319.078339,424.923401 
	C318.153595,423.867737 318.147461,421.860138 318.032776,420.268646 
	C317.618469,414.518219 316.270569,408.556580 317.308105,403.058289 
	C318.345978,397.558136 320.739624,391.507385 324.477844,387.512024 
	C330.098938,381.504456 333.710114,374.452332 338.032898,367.749054 
	C339.785248,365.031677 339.791992,362.049652 336.753052,360.477661 
	C332.063904,358.052032 332.640961,353.920868 333.149048,350.174255 
	C334.108490,343.099426 335.427246,342.367676 342.590546,340.866699 
	C345.186188,340.322815 348.858185,339.156219 349.698761,337.244690 
	C351.250305,333.716309 347.535706,332.007080 344.897644,330.324280 
	C344.518768,330.082581 344.319916,329.558685 343.755615,328.772125 
	C346.898010,327.145172 350.204529,325.932831 352.866516,323.883301 
	C354.706726,322.466461 355.671509,319.902893 356.998627,317.833282 
	C357.682220,316.767242 358.043701,315.278625 358.993835,314.634521 
	C365.297150,310.361237 370.068268,305.135498 370.316620,295.969513 
	C373.354248,299.683594 370.676697,305.334656 376.606171,306.553375 
	C376.999481,318.034332 377.047424,328.987976 376.950439,339.940338 
	C376.935303,341.645416 376.258636,343.344635 375.535950,345.018188 
	C373.824982,344.979218 372.465881,344.968628 370.801208,344.979431 
	C370.291901,345.015411 370.088165,345.029938 369.452057,345.025482 
	C365.777710,345.763062 361.679291,345.559448 359.498016,347.505127 
	C356.362549,350.302032 354.622955,354.663757 352.071991,358.543793 
	C351.754242,359.096802 351.652039,359.463531 351.549805,359.830292 
	C352.057343,359.580872 352.564850,359.331421 353.483398,359.045532 
	C360.262360,358.394806 366.630280,357.780548 372.998840,357.624542 
	C372.998810,386.332886 372.998108,414.583038 372.997437,442.833160 
z"/>
<path fill="#0097B6" opacity="1.000000" stroke="none" 
	d="
M250.899109,456.566681 
	C251.025177,497.244110 251.023300,537.607483 250.969772,577.970764 
	C250.966965,580.088562 250.525482,582.205872 250.118652,584.714050 
	C246.707870,580.386230 241.902878,576.537659 241.637482,570.163696 
	C234.852936,566.313232 236.093002,558.084473 232.136856,552.551392 
	C230.051437,549.634827 230.235794,545.168579 229.074432,541.503662 
	C226.142136,532.250366 223.028091,523.054626 220.255219,513.158325 
	C220.682388,510.678619 220.977310,508.876617 220.979492,507.074280 
	C221.010208,481.771790 221.001053,456.469238 221.001572,431.166718 
	C222.000137,431.938385 223.082291,432.624054 223.981567,433.497894 
	C226.659042,436.099731 228.868286,440.337616 231.973709,441.125610 
	C240.830353,443.373169 246.697754,448.479736 250.899109,456.566681 
z"/>
<path fill="#00BBD8" opacity="1.000000" stroke="none" 
	d="
M439.598114,246.099152 
	C439.666412,266.244751 439.186737,286.320099 439.038788,306.397827 
	C438.870911,329.179260 439.095123,351.963531 438.932037,374.745026 
	C438.892059,380.328796 438.007874,385.906494 436.889496,391.594788 
	C434.074585,387.970062 431.881958,384.237518 429.689362,380.504974 
	C429.008148,380.843719 428.326965,381.182495 427.645752,381.521240 
	C428.804474,384.668945 429.963165,387.816650 430.803101,391.243530 
	C429.989563,401.116272 429.152588,410.706879 429.067810,420.304108 
	C428.860260,443.801727 428.973358,467.302521 429.045624,490.801727 
	C429.052094,492.904297 429.699738,495.004913 430.049622,497.106415 
	C430.016174,499.082794 430.362488,501.162628 429.859039,503.010986 
	C429.128113,505.694366 427.783783,508.210663 426.206421,510.560913 
	C425.474518,508.365540 425.009033,506.404449 425.035034,504.449890 
	C425.311798,483.659729 425.809845,462.871643 425.961609,442.080902 
	C426.129486,419.083221 426.023712,396.083344 425.951752,373.084656 
	C425.946411,371.375610 425.254272,369.668732 425.028442,367.644989 
	C429.635345,362.669800 429.758270,361.400635 425.998932,358.378784 
	C426.332092,352.671539 426.664642,347.419159 427.403229,342.109619 
	C429.708344,342.368195 431.631561,343.012787 433.497467,342.876068 
	C434.615021,342.794220 435.883606,341.654602 436.574219,340.642365 
	C436.800446,340.310760 435.581238,338.692352 434.746552,337.992126 
	C431.878784,335.586304 428.888489,333.326508 426.061768,331.102966 
	C425.978516,333.966614 426.761841,338.161346 420.998474,336.375366 
	C420.999542,312.002380 420.973785,288.087555 421.045471,264.173035 
	C421.051758,262.077576 421.697632,259.983978 422.046448,257.889526 
	C422.313019,256.752411 422.779968,255.619217 422.802429,254.477310 
	C422.843079,252.411346 422.618439,250.340149 422.459656,247.455597 
	C424.588898,248.405960 426.042603,248.577698 426.481903,249.336624 
	C428.065125,252.071655 429.253174,250.676331 431.089111,249.568893 
	C433.592407,248.058929 436.476044,247.179626 439.598114,246.099152 
z"/>
<path fill="#0095BD" opacity="1.000000" stroke="none" 
	d="
M220.617706,431.228516 
	C221.001053,456.469238 221.010208,481.771790 220.979492,507.074280 
	C220.977310,508.876617 220.682388,510.678619 220.207809,512.764404 
	C217.251175,502.648865 207.423386,499.295776 200.525360,493.003387 
	C194.758972,487.743347 189.746368,481.650116 184.507019,475.829498 
	C183.964966,475.227295 184.103714,473.973480 184.009644,473.013824 
	C183.658463,469.431183 182.971008,465.828125 183.134445,462.265991 
	C183.256271,459.610596 184.178024,456.861572 185.298981,454.407990 
	C188.134842,448.200775 187.871506,445.595795 183.114838,440.022919 
	C182.988632,437.916229 182.994858,436.541290 183.001068,435.166351 
	C187.013916,435.281982 190.849991,435.066925 193.367447,431.166443 
	C196.700531,426.002289 201.540726,427.773254 204.821167,430.190521 
	C210.088959,434.072205 214.919693,433.505127 220.617706,431.228516 
z"/>
<path fill="#0096BA" opacity="1.000000" stroke="none" 
	d="
M204.408539,348.056610 
	C203.694397,335.246307 203.370300,322.377075 202.975327,309.509979 
	C202.915451,307.559509 202.526062,305.619171 202.121078,303.282654 
	C203.180298,301.562256 204.167694,299.769989 205.678131,298.988098 
	C210.973190,296.247070 211.096283,292.621185 208.811813,289.369537 
	C211.163727,284.633148 213.244293,280.656219 215.120667,276.585175 
	C216.259903,274.113464 217.596405,272.616486 220.693268,272.941498 
	C226.536819,273.554840 231.002609,280.380066 228.763626,285.624390 
	C228.397919,286.480988 228.200775,287.409515 227.820480,288.647339 
	C233.440765,289.570374 234.020981,284.126282 238.000595,281.493469 
	C238.000595,285.918457 237.906799,289.742981 238.042542,293.559357 
	C238.104752,295.309204 238.052979,297.498413 239.025223,298.704742 
	C243.086777,303.744263 243.099487,309.492310 243.144333,315.485962 
	C243.163437,318.036621 245.038239,320.519806 245.550079,323.135345 
	C246.071426,325.799500 246.932358,329.082855 245.864777,331.195892 
	C244.576508,333.745758 241.696884,333.347015 239.231674,331.145538 
	C237.608032,329.695618 235.259628,329.057251 232.860764,327.869873 
	C234.806320,325.093353 236.534821,322.626556 238.702362,319.715302 
	C239.244263,318.904297 239.347122,318.537750 239.449982,318.171234 
	C238.942612,318.420227 238.435226,318.669220 237.927841,318.918213 
	C232.571365,320.051605 227.214905,321.184998 222.502289,322.182159 
	C222.641937,322.627808 222.921509,324.371338 223.719223,325.831848 
	C224.555908,327.363678 225.950195,328.580170 226.989151,330.015289 
	C228.055435,331.488129 229.742706,333.065948 229.728149,334.584167 
	C229.717300,335.716431 227.607651,337.288940 226.123001,337.859161 
	C221.921432,339.472900 217.720810,341.212891 212.929871,339.259308 
	C211.983749,338.873505 209.709152,340.782349 208.563461,342.086456 
	C207.036377,343.824799 206.014404,346.006866 204.408539,348.056610 
z"/>
<path fill="#00B3CE" opacity="1.000000" stroke="none" 
	d="
M420.118530,521.037720 
	C416.661926,524.693970 413.205322,528.350220 409.381897,531.586853 
	C409.355988,477.737946 409.696960,424.308685 410.483337,370.929626 
	C413.619202,371.042084 416.309662,371.104248 419.000061,371.624664 
	C418.999969,405.535828 419.098236,438.989197 418.954529,472.441528 
	C418.891785,487.045868 418.265259,501.647247 418.097717,516.252319 
	C418.079529,517.839539 419.412384,519.442261 420.118530,521.037720 
z"/>
<path fill="#00AFC8" opacity="1.000000" stroke="none" 
	d="
M410.037964,370.879395 
	C409.696960,424.308685 409.355988,477.737946 409.026306,531.643921 
	C406.932037,532.993835 404.826477,533.867065 402.360352,534.329163 
	C402.332214,479.000946 402.664612,424.083801 403.380493,369.096741 
	C405.855316,369.644348 407.946625,370.261871 410.037964,370.879395 
z"/>
<path fill="#00B3CE" opacity="1.000000" stroke="none" 
	d="
M421.904419,257.576904 
	C421.697632,259.983978 421.051758,262.077576 421.045471,264.173035 
	C420.973785,288.087555 420.999542,312.002380 420.642761,336.443298 
	C418.885712,336.486786 417.485138,336.004028 415.597473,335.353363 
	C414.677094,336.903503 413.695587,338.556610 412.714050,340.209686 
	C414.142761,340.862030 415.571442,341.514374 417.000061,342.595520 
	C416.666168,348.960846 416.332336,354.897369 415.640656,360.897034 
	C412.842438,359.347107 410.402069,357.734070 408.125671,355.727783 
	C408.526459,353.385162 408.965729,351.436218 408.969299,349.486450 
	C409.015961,324.105438 408.935089,298.723846 409.094360,273.343750 
	C409.111877,270.546112 410.415253,267.756592 411.423767,265.118866 
	C412.184814,266.066406 412.644348,266.858368 412.912811,267.321045 
	C415.107025,264.710266 417.156311,262.271912 419.205597,259.833557 
	C418.930420,259.509064 418.655212,259.184601 418.380005,258.860107 
	C415.960358,259.919220 413.540741,260.978302 410.805237,261.814697 
	C410.326233,256.783142 410.163055,251.974335 409.999878,247.165512 
	C416.181000,247.899094 418.833069,252.743134 421.904419,257.576904 
z"/>
<path fill="#00ABC3" opacity="1.000000" stroke="none" 
	d="
M402.996979,369.166656 
	C402.664612,424.083801 402.332214,479.000946 401.999390,534.375732 
	C399.416138,534.473816 396.833313,534.114319 394.387238,533.118042 
	C394.682373,531.513000 394.969940,530.546143 394.980347,529.576294 
	C395.336487,496.381012 395.739777,463.186035 395.973053,429.989838 
	C396.117859,409.383026 395.999237,388.774414 396.405396,368.095703 
	C398.873627,368.405396 400.935303,368.786011 402.996979,369.166656 
z"/>
<path fill="#00BDDB" opacity="1.000000" stroke="none" 
	d="
M430.357208,496.967987 
	C429.699738,495.004913 429.052094,492.904297 429.045624,490.801727 
	C428.973358,467.302521 428.860260,443.801727 429.067810,420.304108 
	C429.152588,410.706879 429.989563,401.116272 431.111816,391.411804 
	C434.840637,397.496338 437.941986,403.691742 441.043335,409.887177 
	C441.028900,418.053589 441.137573,426.222626 440.961395,434.385559 
	C440.818359,441.013306 440.209564,447.631104 440.073120,454.258820 
	C440.030365,456.336365 440.850891,458.431732 441.437744,461.079834 
	C441.732605,466.665405 441.639313,471.709045 442.056549,476.710052 
	C442.583069,483.020813 441.136719,488.218475 435.629761,491.979095 
	C433.748169,493.264038 432.307129,495.194183 430.357208,496.967987 
z"/>
<path fill="#0097B6" opacity="1.000000" stroke="none" 
	d="
M231.909546,220.045776 
	C236.405548,217.891296 240.550522,220.588913 244.788879,221.243683 
	C246.046600,221.438004 247.859222,224.019485 247.830460,225.475754 
	C247.732086,230.456223 249.102417,234.606705 251.693054,238.897644 
	C252.985443,241.038269 251.841354,244.677109 251.717880,247.634872 
	C251.647156,249.329010 251.113617,251.054550 251.323502,252.697632 
	C251.627167,255.075104 252.927994,257.398010 252.894424,259.731110 
	C252.816330,265.159698 249.165573,267.069183 245.205338,264.982330 
	C243.799454,268.283356 243.047699,272.236481 240.765396,274.856232 
	C237.879593,278.168732 234.666641,277.068298 231.950348,273.359467 
	C229.852737,270.495331 226.824051,268.313080 223.782898,266.208893 
	C222.300400,262.814362 223.192688,260.960144 227.799667,260.866241 
	C233.178116,260.756683 238.784836,250.960556 236.395370,246.068771 
	C235.414459,244.060623 233.141907,242.683395 231.456909,241.019165 
	C230.204742,242.928131 228.952576,244.837082 227.206299,246.535492 
	C226.474792,243.554611 226.281723,240.779572 225.988068,238.015213 
	C225.666962,234.992584 225.252853,231.979843 224.936249,228.618378 
	C226.679337,226.169205 228.365479,224.064438 230.025467,221.979324 
	C229.999313,221.998978 229.950012,222.042038 230.355591,222.013885 
	C231.179962,221.304977 231.598724,220.624237 231.992706,219.971375 
	C231.967911,219.999252 231.909546,220.045776 231.909546,220.045776 
z"/>
<path fill="#00A7BE" opacity="1.000000" stroke="none" 
	d="
M395.998840,368.166595 
	C395.999237,388.774414 396.117859,409.383026 395.973053,429.989838 
	C395.739777,463.186035 395.336487,496.381012 394.980347,529.576294 
	C394.969940,530.546143 394.682373,531.513000 394.208557,532.765320 
	C391.590027,526.311890 389.286987,519.574402 387.253876,512.159058 
	C388.015869,498.230499 388.841370,484.981995 388.932800,471.728485 
	C389.144196,441.087982 388.963989,410.444855 389.079407,379.803314 
	C389.087311,377.714172 390.231506,375.629333 391.160522,373.728699 
	C392.314758,373.293732 393.355652,372.820099 393.948914,372.016205 
	C394.802917,370.858978 395.331421,369.461517 395.998840,368.166595 
z"/>
<path fill="#00AFC8" opacity="1.000000" stroke="none" 
	d="
M409.608948,247.096420 
	C410.163055,251.974335 410.326233,256.783142 410.753540,262.178650 
	C411.052490,263.497986 411.087372,264.230621 411.122253,264.963287 
	C410.415253,267.756592 409.111877,270.546112 409.094360,273.343750 
	C408.935089,298.723846 409.015961,324.105438 408.969299,349.486450 
	C408.965729,351.436218 408.526459,353.385162 407.811768,355.591064 
	C405.213593,357.642456 403.470520,360.364288 399.997833,358.395294 
	C399.998413,334.360718 399.998016,310.763794 399.997650,287.166870 
	C401.607300,287.024445 403.216949,286.881989 404.826599,286.739563 
	C404.931366,286.381958 405.036133,286.024384 405.140900,285.666779 
	C403.355743,285.104462 401.570557,284.542114 399.392670,283.449371 
	C399.000366,274.258698 398.776031,265.590118 399.095703,256.941650 
	C399.256470,252.592651 400.405670,248.280197 401.107910,243.951202 
	C403.811279,244.976578 406.514679,246.001953 409.608948,247.096420 
z"/>
<path fill="#00B9D6" opacity="1.000000" stroke="none" 
	d="
M420.434387,520.894653 
	C419.412384,519.442261 418.079529,517.839539 418.097717,516.252319 
	C418.265259,501.647247 418.891785,487.045868 418.954529,472.441528 
	C419.098236,438.989197 418.999969,405.535828 419.316559,371.471588 
	C421.382568,369.893799 423.131989,368.927307 424.881439,367.960815 
	C425.254272,369.668732 425.946411,371.375610 425.951752,373.084656 
	C426.023712,396.083344 426.129486,419.083221 425.961609,442.080902 
	C425.809845,462.871643 425.311798,483.659729 425.035034,504.449890 
	C425.009033,506.404449 425.474518,508.365540 425.881348,510.714355 
	C424.283966,514.320618 422.517090,517.536072 420.434387,520.894653 
z"/>
<path fill="#00A3B9" opacity="1.000000" stroke="none" 
	d="
M390.847229,373.542480 
	C390.231506,375.629333 389.087311,377.714172 389.079407,379.803314 
	C388.963989,410.444855 389.144196,441.087982 388.932800,471.728485 
	C388.841370,484.981995 388.015869,498.230499 387.208252,511.765198 
	C384.810852,505.168762 381.157959,498.646851 382.017609,491.094330 
	C382.216949,489.343323 382.298859,487.457855 383.021637,485.907928 
	C386.631165,478.167084 385.359009,471.230316 379.996185,464.033264 
	C380.323547,457.637115 380.931641,452.033478 380.953888,446.427551 
	C381.057312,420.340820 380.998657,394.253387 381.359009,368.100464 
	C384.762451,369.870636 387.804840,371.706543 390.847229,373.542480 
z"/>
<path fill="#009AAE" opacity="1.000000" stroke="none" 
	d="
M271.460083,198.968719 
	C274.547119,197.541443 277.404297,196.406403 280.630188,195.219299 
	C280.999237,218.419388 280.962372,241.671677 281.044312,264.923553 
	C281.055267,268.034393 281.666779,271.143158 282.021606,274.683319 
	C280.104218,278.830658 278.326233,282.644318 276.168701,286.229584 
	C274.783112,288.532074 272.545380,288.852417 270.999451,286.403595 
	C269.390747,283.855377 267.615509,281.107635 267.093323,278.232758 
	C265.191833,267.763855 263.329376,257.097443 274.394379,249.422745 
	C269.951202,244.287888 273.103210,239.574997 274.641235,234.706253 
	C275.610443,231.638245 276.644104,228.494507 276.918915,225.321518 
	C277.697784,216.328171 276.753082,215.416183 266.265442,214.660568 
	C267.321045,211.342468 268.286438,208.283249 269.268646,205.229446 
	C269.909851,203.235886 270.575500,201.250168 271.460083,198.968719 
z"/>
<path fill="#0095BB" opacity="1.000000" stroke="none" 
	d="
M224.879288,228.962784 
	C225.252853,231.979843 225.666962,234.992584 225.988068,238.015213 
	C226.281723,240.779572 226.474792,243.554611 226.881256,246.715439 
	C225.920502,250.642395 225.474472,254.666245 223.422333,257.545319 
	C222.036484,259.489655 218.387070,259.820618 215.715515,260.887115 
	C215.929932,261.261017 216.551865,262.213165 217.044540,263.228058 
	C218.923935,267.099579 218.123184,268.482788 213.802765,269.002625 
	C211.734848,269.251434 209.675064,269.567932 206.807770,269.965149 
	C207.782562,266.514191 208.656921,263.418793 209.843582,259.217834 
	C206.603729,261.820801 204.139374,263.800751 201.337250,265.807068 
	C200.692352,258.464172 200.385223,251.094925 200.222275,242.925629 
	C200.578644,241.233200 200.790833,240.340851 201.003006,239.448486 
	C201.212402,239.273438 201.417389,239.093307 201.641937,238.824768 
	C206.571625,238.521805 208.661041,234.723373 210.915634,231.281693 
	C213.672989,227.072525 216.156647,222.684967 218.869415,218.445404 
	C221.724152,213.983994 229.875870,213.817978 232.874863,218.129211 
	C232.987930,218.291748 232.416122,218.930695 232.036499,219.696716 
	C231.909546,220.045776 231.967911,219.999252 231.693481,220.055634 
	C230.929352,220.755341 230.439682,221.398682 229.950012,222.042038 
	C229.950012,222.042038 229.999313,221.998978 229.641632,221.997375 
	C221.583755,223.238159 221.176682,230.707626 218.225510,235.705444 
	C216.771912,238.167114 217.973328,242.196548 217.973328,245.516556 
	C218.394943,245.651611 218.816559,245.786667 219.238174,245.921738 
	C220.803833,243.559509 224.162384,239.693695 223.645782,239.077682 
	C220.146027,234.904541 223.999710,232.199524 224.879288,228.962784 
z"/>
<path fill="#009EB3" opacity="1.000000" stroke="none" 
	d="
M380.997955,368.166229 
	C380.998657,394.253387 381.057312,420.340820 380.953888,446.427551 
	C380.931641,452.033478 380.323547,457.637115 379.971863,463.678284 
	C376.200043,460.202820 373.835632,456.092346 375.723267,450.207214 
	C376.410400,448.064941 377.651825,444.503662 373.394379,442.916229 
	C372.998108,414.583038 372.998810,386.332886 373.408325,357.552734 
	C376.678864,356.681244 377.831940,357.737000 378.150421,360.816528 
	C378.411163,363.337616 379.998627,365.721527 380.997955,368.166229 
z"/>
<path fill="#00A3B9" opacity="1.000000" stroke="none" 
	d="
M375.887878,345.046570 
	C376.258636,343.344635 376.935303,341.645416 376.950439,339.940338 
	C377.047424,328.987976 376.999481,318.034332 376.997803,306.623383 
	C381.079559,305.205841 385.162689,304.246033 389.684357,303.627258 
	C390.082123,309.368958 390.010773,314.769562 390.006927,320.170258 
	C389.999359,330.817902 390.029205,341.465515 390.023499,352.484070 
	C388.104706,355.318726 386.422211,358.016052 384.171478,360.099548 
	C383.522369,360.700470 380.490143,360.001495 379.900848,359.056458 
	C379.227753,357.977051 379.499756,354.989929 380.333191,354.505981 
	C385.299194,351.622437 382.804626,349.888275 379.735016,347.935760 
	C378.385895,347.077606 377.166290,346.015869 375.887878,345.046570 
z"/>
<path fill="#00A7BE" opacity="1.000000" stroke="none" 
	d="
M390.043549,352.113159 
	C390.029205,341.465515 389.999359,330.817902 390.006927,320.170258 
	C390.010773,314.769562 390.082123,309.368958 390.061462,303.567749 
	C390.666382,301.991364 391.441559,300.861877 391.967377,299.626251 
	C392.457581,298.474274 392.301239,296.594910 393.092377,296.104065 
	C396.025940,294.283905 397.693115,292.083923 397.297699,288.487579 
	C397.262085,288.163910 398.565552,287.692993 399.622406,287.228638 
	C399.998016,310.763794 399.998413,334.360718 399.649933,358.458618 
	C396.215240,356.677460 393.129395,354.395294 390.043549,352.113159 
z"/>
<path fill="#009FB6" opacity="1.000000" stroke="none" 
	d="
M389.110229,268.045135 
	C386.548492,273.768005 383.828003,278.882690 386.421692,286.070831 
	C387.722839,289.676727 383.900818,295.340454 381.820190,299.805328 
	C381.321259,300.876007 378.528229,300.877655 376.546997,301.440002 
	C375.922485,299.209290 375.453613,297.534424 375.250732,295.177460 
	C376.010590,285.335388 376.597717,276.178406 376.894806,267.012054 
	C376.937866,265.682953 375.591614,264.308838 374.888275,262.955566 
	C374.975525,253.801102 379.128510,247.166870 387.622498,243.415497 
	C387.990479,248.913132 387.867950,253.998123 388.048187,259.072388 
	C388.154755,262.072113 388.740173,265.054779 389.110229,268.045135 
z"/>
<path fill="#00B6D2" opacity="1.000000" stroke="none" 
	d="
M305.037354,180.879364 
	C307.103119,180.262634 309.168854,179.645889 311.616455,179.097900 
	C312.054474,204.724274 312.110687,230.281891 312.247925,256.368774 
	C310.127411,257.919312 307.925903,258.940643 305.361664,259.439941 
	C305.011780,232.905060 305.024567,206.892197 305.037354,180.879364 
z"/>
<path fill="#0092C5" opacity="1.000000" stroke="none" 
	d="
M182.567444,435.095276 
	C182.994858,436.541290 182.988632,437.916229 182.970703,439.703827 
	C179.216949,442.575684 173.201218,441.128479 168.262573,435.625641 
	C162.008469,428.657196 154.705811,424.014862 145.162354,422.452087 
	C145.286057,419.317627 145.607330,416.512665 145.985260,413.296448 
	C150.007584,413.642242 153.078659,412.738647 154.914093,408.710876 
	C155.492996,407.440552 156.788483,406.150604 158.064682,405.637756 
	C159.448151,405.081818 161.332016,405.042114 162.712296,405.551117 
	C163.298203,405.767181 163.556061,408.051270 163.268463,409.225372 
	C162.551590,412.151825 161.436356,414.980682 160.293411,418.411987 
	C164.080414,419.090149 167.836838,419.762817 171.576767,420.432526 
	C173.392090,434.955963 173.392090,434.955963 182.567444,435.095276 
z"/>
<path fill="#00AFC8" opacity="1.000000" stroke="none" 
	d="
M304.840881,180.555405 
	C305.024567,206.892197 305.011780,232.905060 304.998230,259.375488 
	C303.611725,260.217957 302.225922,260.602844 300.472229,261.018616 
	C299.736420,259.838470 299.050507,258.628174 299.047516,257.416168 
	C298.985901,232.588455 298.997803,207.760513 299.022827,182.932648 
	C299.023651,182.127930 299.316528,181.323517 299.787476,180.233505 
	C301.615906,180.042526 303.130157,180.136993 304.840881,180.555405 
z"/>
<path fill="#00A7BE" opacity="1.000000" stroke="none" 
	d="
M389.427429,267.874847 
	C388.740173,265.054779 388.154755,262.072113 388.048187,259.072388 
	C387.867950,253.998123 387.990479,248.913132 387.975098,243.356018 
	C392.353149,240.730377 396.724884,239.349594 401.044952,243.558807 
	C400.405670,248.280197 399.256470,252.592651 399.095703,256.941650 
	C398.776031,265.590118 399.000366,274.258698 398.999329,283.376648 
	C390.511902,283.045990 388.628113,280.236816 391.267181,272.373932 
	C392.023132,270.121796 392.682220,267.837128 393.385712,265.567383 
	C392.937836,265.315002 392.489990,265.062622 392.042114,264.810242 
	C391.276276,265.774994 390.510468,266.739777 389.427429,267.874847 
z"/>
<path fill="#009AAE" opacity="1.000000" stroke="none" 
	d="
M374.570007,263.133820 
	C375.591614,264.308838 376.937866,265.682953 376.894806,267.012054 
	C376.597717,276.178406 376.010590,285.335388 375.205322,294.772278 
	C374.112885,293.873077 373.331879,292.696930 372.509674,291.458771 
	C369.510071,292.828766 366.323883,296.684540 363.090302,292.096649 
	C359.528717,287.043274 360.214813,279.816986 364.458130,277.250000 
	C369.862488,273.980652 372.578033,269.073242 374.570007,263.133820 
z"/>
<path fill="#00CEC3" opacity="1.000000" stroke="none" 
	d="
M471.403992,411.054749 
	C470.698792,403.432495 470.349396,395.757141 470.000061,387.624268 
	C475.096405,385.216522 479.045502,385.897095 483.151886,390.285858 
	C486.573608,393.942871 486.627716,397.232025 484.050751,400.152252 
	C480.462891,404.218018 475.903381,407.426361 471.403992,411.054749 
z"/>
<path fill="#0090CC" opacity="1.000000" stroke="none" 
	d="
M342.037781,303.982178 
	C342.152130,301.042267 341.988037,298.048126 342.543732,295.194153 
	C342.719666,294.290619 345.105865,292.948364 345.967468,293.253906 
	C347.217743,293.697266 348.917511,295.529297 348.826538,296.637817 
	C348.437378,301.378571 351.487396,304.430450 353.455719,308.095734 
	C354.932251,310.845276 355.675171,313.988831 356.654022,316.705383 
	C351.473663,319.886139 347.163025,322.532898 342.852356,325.179688 
	C342.321289,324.955383 341.790222,324.731110 341.259186,324.506805 
	C342.468353,319.026520 343.677490,313.546234 344.886658,308.065948 
	C345.338562,308.036285 345.790436,308.006653 346.242340,307.976990 
	C345.035736,306.698700 343.829102,305.420380 342.305115,304.049622 
	C341.987701,303.957153 342.037781,303.982178 342.037781,303.982178 
z"/>
<path fill="#00B4AD" opacity="1.000000" stroke="none" 
	d="
M447.265137,496.345337 
	C451.960541,490.316437 456.451477,484.602844 460.942383,478.889252 
	C461.315796,479.014862 461.689178,479.140442 462.062561,479.266022 
	C461.828613,481.250763 461.900726,483.332672 461.306793,485.203094 
	C458.962158,492.586975 456.366974,499.890869 453.951569,507.252930 
	C452.881104,510.515564 450.748779,511.820251 447.550995,510.751526 
	C443.739258,509.477631 442.412415,506.220947 444.046570,502.782227 
	C445.022736,500.728119 446.054077,498.700256 447.265137,496.345337 
z"/>
<path fill="#00C9CB" opacity="1.000000" stroke="none" 
	d="
M453.413147,447.886566 
	C452.740784,444.730652 452.184021,441.423309 452.047302,438.098694 
	C451.865814,433.685699 452.012115,429.259247 452.030212,424.362488 
	C456.171478,423.204498 460.298553,422.512695 464.430084,421.848694 
	C465.290192,421.710480 466.685913,421.313873 466.930725,421.665649 
	C467.487091,422.464966 467.996674,423.922882 467.622131,424.644257 
	C464.818390,430.044220 461.888245,435.385040 458.799591,440.627747 
	C457.327972,443.125671 455.423920,445.368866 453.413147,447.886566 
z"/>
<path fill="#00A9C6" opacity="1.000000" stroke="none" 
	d="
M382.781128,208.500458 
	C382.800781,209.816742 382.945374,211.386185 382.471710,211.602615 
	C380.984589,212.282166 378.872253,211.988602 377.741150,212.945526 
	C376.514160,213.983582 376.116943,216.002411 375.357880,217.593582 
	C374.722534,217.083923 374.087189,216.574265 373.451843,216.064621 
	C371.900879,213.797882 370.255371,211.589264 368.818695,209.252243 
	C365.863098,204.444321 366.316437,203.034042 371.206451,200.312531 
	C372.465088,199.612030 373.716217,198.739197 374.668304,197.674927 
	C378.239410,193.683075 382.468903,193.763672 385.973022,198.113541 
	C384.469666,201.284378 378.301544,203.009079 382.781128,208.500458 
z"/>
<path fill="#00ABC3" opacity="1.000000" stroke="none" 
	d="
M330.362640,270.178253 
	C328.457306,275.644379 326.505005,276.681030 319.377106,275.978912 
	C315.236053,275.571045 314.475006,272.541901 313.949005,269.082642 
	C313.268616,264.608246 313.371613,261.674469 319.297699,263.889832 
	C321.185394,264.595520 323.559143,264.041168 325.709076,263.996429 
	C329.809631,263.911072 332.085571,265.307648 330.362640,270.178253 
z"/>
<path fill="#00A9C6" opacity="1.000000" stroke="none" 
	d="
M225.422028,203.079376 
	C225.032928,202.306259 225.024780,201.499847 225.028687,200.290314 
	C229.277740,198.526962 233.501068,196.483673 237.614532,199.609924 
	C236.031921,204.203537 234.434113,208.841309 232.326859,214.957748 
	C229.835648,210.409180 227.819321,206.727646 225.422028,203.079376 
z"/>
<path fill="#0090CC" opacity="1.000000" stroke="none" 
	d="
M341.976196,303.931641 
	C341.421967,309.265228 342.627167,315.409210 335.820099,318.067993 
	C331.658203,315.183014 332.004669,311.046021 333.952881,307.939056 
	C335.152679,306.025574 338.845306,305.675140 341.728241,304.302551 
	C342.037781,303.982178 341.987701,303.957153 341.976196,303.931641 
z"/>
<path fill="#00B4AD" opacity="1.000000" stroke="none" 
	d="
M193.027176,409.994293 
	C198.028641,408.021515 202.203308,409.056854 206.390900,414.239410 
	C201.579071,414.526306 197.633591,414.878418 193.684570,414.924072 
	C192.535355,414.937347 191.376038,414.074768 190.221344,413.613647 
	C191.088440,412.612915 191.955536,411.612183 192.935333,410.278320 
	C193.048035,409.945221 193.027176,409.994293 193.027176,409.994293 
z"/>
<path fill="#00ABC3" opacity="1.000000" stroke="none" 
	d="
M180.996460,402.161652 
	C184.167404,403.728790 187.392380,405.199493 190.474350,406.925476 
	C191.330215,407.404755 191.762085,408.641083 192.707825,409.762207 
	C193.027176,409.994293 193.048035,409.945221 193.074905,409.934204 
	C188.897171,409.287659 183.955063,411.982178 180.340820,406.657898 
	C180.336441,404.817017 180.666443,403.489319 180.996460,402.161652 
z"/>
<path fill="#00C9CB" opacity="1.000000" stroke="none" 
	d="
M180.654633,401.985748 
	C180.666443,403.489319 180.336441,404.817017 180.003036,406.491272 
	C176.232819,405.609863 172.465988,404.381897 168.871078,403.209961 
	C172.181900,399.206757 174.679489,398.820923 180.654633,401.985748 
z"/>
<path fill="#FFFFFF" opacity="1.000000" stroke="none" 
	d="
M200.638763,239.681412 
	C200.790833,240.340851 200.578644,241.233200 200.164383,242.502808 
	C198.424210,243.500107 196.734665,244.826385 195.391312,244.538300 
	C194.090866,244.259384 193.146591,242.319550 192.045883,241.109238 
	C193.312225,240.737366 194.557449,240.213745 195.850494,240.033981 
	C197.302658,239.832062 198.797989,239.940781 200.638763,239.681412 
z"/>
<path fill="#FFFFFF" opacity="1.000000" stroke="none" 
	d="
M441.361084,410.036011 
	C437.941986,403.691742 434.840637,397.496338 431.430603,391.132629 
	C429.963165,387.816650 428.804474,384.668945 427.645752,381.521240 
	C428.326965,381.182495 429.008148,380.843719 429.689362,380.504974 
	C431.881958,384.237518 434.074585,387.970062 436.574432,391.869324 
	C440.532837,399.296753 444.183990,406.557465 447.835144,413.818146 
	C447.286957,414.188416 446.738739,414.558685 446.190552,414.928955 
	C444.686646,413.347595 443.182739,411.766235 441.361084,410.036011 
z"/>
<path fill="#FFFFFF" opacity="1.000000" stroke="none" 
	d="
M460.550415,377.376068 
	C461.093597,377.430908 461.395538,377.743835 461.697449,378.056732 
	C461.234680,377.915863 460.771881,377.774994 460.550415,377.376068 
z"/>
<path fill="#FFFFFF" opacity="1.000000" stroke="none" 
	d="
M390.023499,352.484070 
	C393.129395,354.395294 396.215240,356.677460 399.648987,358.896301 
	C403.470520,360.364288 405.213593,357.642456 407.647766,355.984344 
	C410.402069,357.734070 412.842438,359.347107 416.040771,360.967102 
	C418.544647,360.690002 420.290558,360.405945 422.392395,360.070557 
	C423.831635,359.624023 424.914978,359.228821 425.998322,358.833618 
	C429.758270,361.400635 429.635345,362.669800 425.028442,367.644958 
	C423.131989,368.927307 421.382568,369.893799 419.316650,371.013367 
	C416.309662,371.104248 413.619202,371.042084 410.483337,370.929626 
	C407.946625,370.261871 405.855316,369.644348 403.380493,369.096741 
	C400.935303,368.786011 398.873627,368.405396 396.405396,368.095703 
	C395.331421,369.461517 394.802917,370.858978 393.948914,372.016205 
	C393.355652,372.820099 392.314758,373.293732 391.160522,373.728699 
	C387.804840,371.706543 384.762451,369.870636 381.359009,368.100464 
	C379.998627,365.721527 378.411163,363.337616 378.150421,360.816528 
	C377.831940,357.737000 376.678864,356.681244 373.407715,357.094543 
	C366.630280,357.780548 360.262360,358.394806 353.298157,358.852478 
	C352.563782,358.583160 352.425659,358.470367 352.287506,358.357544 
	C354.622955,354.663757 356.362549,350.302032 359.498016,347.505127 
	C361.679291,345.559448 365.777710,345.763062 369.361511,345.394348 
	C368.022491,349.023743 368.963898,351.350677 372.447693,353.250580 
	C374.772736,349.842407 374.914307,347.132782 371.106812,344.958038 
	C372.465881,344.968628 373.824982,344.979218 375.535950,345.018188 
	C377.166290,346.015869 378.385895,347.077606 379.735016,347.935760 
	C382.804626,349.888275 385.299194,351.622437 380.333191,354.505981 
	C379.499756,354.989929 379.227753,357.977051 379.900848,359.056458 
	C380.490143,360.001495 383.522369,360.700470 384.171478,360.099548 
	C386.422211,358.016052 388.104706,355.318726 390.023499,352.484070 
z"/>
<path fill="#00A3B9" opacity="1.000000" stroke="none" 
	d="
M370.801208,344.979431 
	C374.914307,347.132782 374.772736,349.842407 372.447693,353.250580 
	C368.963898,351.350677 368.022491,349.023743 369.793884,345.413330 
	C370.088165,345.029938 370.291901,345.015411 370.801208,344.979431 
z"/>
<path fill="#FFFFFF" opacity="1.000000" stroke="none" 
	d="
M352.887146,358.888977 
	C352.564850,359.331421 352.057343,359.580872 351.549805,359.830292 
	C351.652039,359.463531 351.754242,359.096802 352.071991,358.543793 
	C352.425659,358.470367 352.563782,358.583160 352.887146,358.888977 
z"/>
<path fill="#FFFFFF" opacity="1.000000" stroke="none" 
	d="
M417.000153,342.166687 
	C415.571442,341.514374 414.142761,340.862030 412.714050,340.209686 
	C413.695587,338.556610 414.677094,336.903503 415.597473,335.353363 
	C417.485138,336.004028 418.885712,336.486786 420.641968,336.901550 
	C426.761841,338.161346 425.978516,333.966614 426.061768,331.102966 
	C428.888489,333.326508 431.878784,335.586304 434.746552,337.992126 
	C435.581238,338.692352 436.800446,340.310760 436.574219,340.642365 
	C435.883606,341.654602 434.615021,342.794220 433.497467,342.876068 
	C431.631561,343.012787 429.708344,342.368195 427.062744,341.938049 
	C424.877350,341.604584 423.438477,341.385529 421.622894,341.096985 
	C419.830872,341.407257 418.415497,341.786957 417.000153,342.166687 
z"/>
<path fill="#00B9D6" opacity="1.000000" stroke="none" 
	d="
M421.999573,341.166473 
	C423.438477,341.385529 424.877350,341.604584 426.656738,341.995209 
	C426.664642,347.419159 426.332092,352.671539 425.998932,358.378784 
	C424.914978,359.228821 423.831635,359.624023 422.381409,359.594177 
	C422.009521,353.168274 422.004547,347.167358 421.999573,341.166473 
z"/>
<path fill="#FFFFFF" opacity="1.000000" stroke="none" 
	d="
M238.112473,319.111389 
	C238.435226,318.669220 238.942612,318.420227 239.449982,318.171234 
	C239.347122,318.537750 239.244263,318.904297 238.926117,319.456787 
	C238.572937,319.530029 238.435028,319.417297 238.112473,319.111389 
z"/>
<path fill="#00B6D2" opacity="1.000000" stroke="none" 
	d="
M421.622894,341.096985 
	C422.004547,347.167358 422.009521,353.168274 422.025482,359.645538 
	C420.290558,360.405945 418.544647,360.690002 416.398621,360.903931 
	C416.332336,354.897369 416.666168,348.960846 417.000061,342.595520 
	C418.415497,341.786957 419.830872,341.407257 421.622894,341.096985 
z"/>
<path fill="#FFFFFF" opacity="1.000000" stroke="none" 
	d="
M411.423767,265.118866 
	C411.087372,264.230621 411.052490,263.497986 411.069366,262.401367 
	C413.540741,260.978302 415.960358,259.919220 418.380005,258.860107 
	C418.655212,259.184601 418.930420,259.509064 419.205597,259.833557 
	C417.156311,262.271912 415.107025,264.710266 412.912811,267.321045 
	C412.644348,266.858368 412.184814,266.066406 411.423767,265.118866 
z"/>
<path fill="#FFFFFF" opacity="1.000000" stroke="none" 
	d="
M224.936249,228.618378 
	C223.999710,232.199524 220.146027,234.904541 223.645782,239.077682 
	C224.162384,239.693695 220.803833,243.559509 219.238174,245.921738 
	C218.816559,245.786667 218.394943,245.651611 217.973328,245.516556 
	C217.973328,242.196548 216.771912,238.167114 218.225510,235.705444 
	C221.176682,230.707626 221.583755,223.238159 229.667786,221.977722 
	C228.365479,224.064438 226.679337,226.169205 224.936249,228.618378 
z"/>
<path fill="#FFFFFF" opacity="1.000000" stroke="none" 
	d="
M230.355591,222.013885 
	C230.439682,221.398682 230.929352,220.755341 231.718262,220.027740 
	C231.598724,220.624237 231.179962,221.304977 230.355591,222.013885 
z"/>
</svg>